<?xml version="1.0" encoding="utf-8"?>
<!-- Generator: Adobe Illustrator 24.0.3, SVG Export Plug-In . SVG Version: 6.00 Build 0)  -->
<svg version="1.1" xmlns="http://www.w3.org/2000/svg" xmlns:xlink="http://www.w3.org/1999/xlink" x="0px" y="0px"
	 viewBox="0 0 200 200" style="enable-background:new 0 0 200 200;" xml:space="preserve">
<style type="text/css">
	.st0{fill:#FFFFFF;stroke:#111111;stroke-width:3;stroke-linecap:round;stroke-linejoin:round;stroke-miterlimit:10;}
	.st1{fill:#FFFFFF;stroke:#111111;stroke-width:3;stroke-linecap:square;stroke-linejoin:round;stroke-miterlimit:10;}
	.st2{fill:none;stroke:#111111;stroke-width:3;stroke-linecap:round;stroke-linejoin:round;stroke-miterlimit:10;}
</style>
<g id="Layer_1">
</g>
<g id="Layer_4">
</g>
<g id="Layer_6">
	<polygon class="st0" points="129.75,122.08 135.88,122.08 135.88,34.65 104.5,51.55 104.5,141.71 129.75,141.71 	"/>
	<polygon class="st0" points="167.33,122.08 167.33,34.65 135.95,51.55 135.95,122.08 	"/>
	<polyline class="st0" points="27.9,73.45 32.57,12.99 46.58,12.99 50.94,73.12 	"/>
	<line class="st0" x1="32.06" y1="24.04" x2="46.27" y2="24.04"/>
	<polyline class="st0" points="65.26,73.45 69.93,12.99 83.95,12.99 88.31,73.12 	"/>
	<line class="st0" x1="69.27" y1="24.04" x2="83.64" y2="24.04"/>
	<rect x="12.64" y="73.45" class="st0" width="91.86" height="68.26"/>
	<line class="st0" x1="106.06" y1="63.05" x2="135.64" y2="46.47"/>
	<line class="st0" x1="137.19" y1="63.05" x2="166.78" y2="46.47"/>
	<rect x="114.98" y="69.6" class="st0" width="9.87" height="10.3"/>
	<rect x="25.58" y="88.41" class="st0" width="25.53" height="26.65"/>
	<rect x="61.47" y="88.41" class="st0" width="25.53" height="26.65"/>
	<rect x="114.98" y="94.31" class="st0" width="9.87" height="10.3"/>
	<rect x="114.98" y="119.34" class="st0" width="9.87" height="10.3"/>
	<rect x="147.36" y="69.6" class="st0" width="9.87" height="10.3"/>
	<rect x="147.36" y="94.31" class="st0" width="9.87" height="10.3"/>
	<line class="st0" x1="26.11" y1="101.85" x2="50.44" y2="101.85"/>
	<line class="st0" x1="38.43" y1="88.68" x2="38.43" y2="114.7"/>
	<line class="st0" x1="62.01" y1="101.85" x2="86.33" y2="101.85"/>
	<line class="st0" x1="74.32" y1="88.68" x2="74.32" y2="114.7"/>
	<line class="st0" x1="13.24" y1="129.43" x2="103.12" y2="129.43"/>
	<g>
		<path class="st1" d="M188.29,161.87c0-0.52-0.02-1.05-0.05-1.56l2.94-0.52l-1.09-6.16l-2.91,0.51c-0.3-1.05-0.66-2.07-1.08-3.07
			l2.54-1.46l-3.11-5.43l-2.51,1.44c-0.63-0.87-1.31-1.71-2.04-2.5l1.86-2.18l-4.76-4.06l-1.83,2.14c-0.97-0.66-1.98-1.26-3.03-1.8
			l0.96-2.62l-5.88-2.15l-0.94,2.57c-1.11-0.28-2.25-0.48-3.41-0.62v-2.71h-6.26v2.66c-1.19,0.12-2.36,0.33-3.5,0.6l-0.91-2.47
			l-5.87,2.17l0.9,2.44c-0.94,0.47-1.85,0.99-2.73,1.56l-1.65-1.99l-4.82,3.99l1.64,1.98c-0.69,0.71-1.34,1.45-1.94,2.23l-2.18-1.34
			l-3.27,5.34l2.17,1.33c-0.54,1.16-1.01,2.37-1.39,3.61l-2.5-0.47l-1.15,6.15l2.53,0.47c-0.04,0.64-0.07,1.29-0.07,1.94
			c0,0.61,0.03,1.22,0.07,1.83l-2.54,0.45l1.09,6.16l2.56-0.45c0.33,1.08,0.72,2.14,1.17,3.16l-2.28,1.31l3.11,5.43l2.31-1.33
			c0.66,0.88,1.37,1.72,2.13,2.51l-1.75,2.06l4.76,4.06l1.78-2.09c0.98,0.65,2.01,1.24,3.08,1.77l-0.95,2.6l5.88,2.15l0.97-2.65
			c1.1,0.26,2.23,0.45,3.37,0.57v2.85h6.26v-2.91c1.16-0.14,2.29-0.35,3.4-0.62l1.01,2.74l5.87-2.17l-1.02-2.78
			c0.9-0.46,1.77-0.96,2.6-1.52l1.9,2.29l4.82-3.99l-1.91-2.32c0.65-0.68,1.26-1.39,1.84-2.13l2.57,1.57l3.27-5.34l-2.57-1.57
			c0.52-1.11,0.97-2.26,1.34-3.45l2.95,0.55l1.15-6.15l-2.95-0.55C188.26,163.24,188.29,162.56,188.29,161.87z"/>
		<path class="st0" d="M161.06,125.86c5.05,0,9.84,1.05,14.21,2.91v-36.4h-31.65c-3.54,0-6.65,2.35-7.62,5.75l-8.06,28.19
			l-0.39,2.72h18.7C150.77,127,155.78,125.86,161.06,125.86z"/>
		<rect x="93.13" y="107.12" class="st0" width="6.86" height="23.08"/>
		<g>
			<path class="st0" d="M124.88,162.04c0-18.38,13.71-33.55,31.46-35.87H78.02l-3.47,9.56l7.81,26.88h28.92h13.61
				C124.89,162.43,124.88,162.24,124.88,162.04z"/>
		</g>
		<path class="st2" d="M124.88,162.04c0-19.98,16.2-36.18,36.18-36.18c12.21,0,23,6.04,29.55,15.3"/>
		<line class="st1" x1="96.5" y1="93.93" x2="96.5" y2="106.73"/>
		<line class="st1" x1="88.37" y1="136.02" x2="88.37" y2="146.3"/>
		<line class="st1" x1="97.1" y1="136.02" x2="97.1" y2="146.3"/>
		<line class="st1" x1="105.44" y1="136.02" x2="105.44" y2="146.3"/>
		<circle class="st1" cx="93.5" cy="171.96" r="19.31"/>
		<circle class="st1" cx="93.5" cy="171.96" r="7.17"/>
		<circle class="st1" cx="160.61" cy="162.22" r="12.8"/>
	</g>
</g>
</svg>
