<?xml version="1.0" encoding="utf-8"?>
<!-- Generator: Adobe Illustrator 24.0.3, SVG Export Plug-In . SVG Version: 6.00 Build 0)  -->
<svg version="1.1" xmlns="http://www.w3.org/2000/svg" xmlns:xlink="http://www.w3.org/1999/xlink" x="0px" y="0px"
	 viewBox="0 0 200 200" style="enable-background:new 0 0 200 200;" xml:space="preserve">
<style type="text/css">
	.st0{fill:#FFFFFF;stroke:#111111;stroke-width:3;stroke-linecap:round;stroke-linejoin:round;stroke-miterlimit:10;}
	.st1{fill:#FFFFFF;stroke:#111111;stroke-width:3;stroke-linecap:square;stroke-linejoin:round;stroke-miterlimit:10;}
	.st2{fill:none;stroke:#111111;stroke-width:3;stroke-linecap:round;stroke-linejoin:round;stroke-miterlimit:10;}
</style>
<g id="Layer_1">
	<g>
		<polygon class="st0" points="11.5,60.5 17.5,69.5 83.5,25.5 149.5,69.5 155.5,60.5 83.5,12.5 		"/>
		<polygon class="st0" points="27.88,62.7 28.49,137.2 138.77,137.2 138.77,62.7 83.5,25.5 		"/>
		<polyline class="st0" points="46.38,136.47 46.38,77.16 80.2,77.16 80.2,136.47 		"/>
		<polyline class="st0" points="97.85,117.6 97.85,77.41 121.37,77.41 121.37,117.11 		"/>
		<line class="st0" x1="98.36" y1="97.01" x2="121.37" y2="97.01"/>
		<polygon class="st0" points="13.05,137.2 153.48,137.46 153.48,152.4 13.05,152.4 		"/>
		<line class="st0" x1="91.72" y1="117.6" x2="127.5" y2="117.6"/>
	</g>
	<g>
		<path class="st0" d="M172.01,177.28h-38.52c-8.4,0-15.21-6.81-15.21-15.21V120.7c0-8.4,6.81-15.21,15.21-15.21h38.52
			c8.4,0,15.21,6.81,15.21,15.21v41.37C187.22,170.47,180.41,177.28,172.01,177.28z"/>
		<rect x="129.51" y="118.36" class="st0" width="46.65" height="47.25"/>
		<polygon class="st0" points="172.01,105.49 165.9,91.62 137.38,91.62 132.12,105.49 		"/>
		<line class="st0" x1="142.38" y1="99.46" x2="161.08" y2="99.46"/>
		<polygon class="st0" points="132.12,177.88 138.24,191.75 166.76,191.75 172.01,177.88 		"/>
		<line class="st0" x1="161.76" y1="183.91" x2="143.06" y2="183.91"/>
		<polyline class="st0" points="130.92,138.27 149.21,138.27 153.44,127.01 159.07,144.7 164.09,133.44 167.71,137.66 
			175.35,137.66 		"/>
		<path class="st0" d="M143,148.36c0,0-3.02-3.89-5.83-0.97c-2.71,2.81,0.11,5.83,0.11,5.83l5.51,5.83l6.48-6.8
			c0,0,2.16-2.81-1.19-5.18C145.48,145.22,143,148.36,143,148.36z"/>
	</g>
</g>
<g id="Layer_4">
</g>
<g id="Layer_6">
</g>
</svg>
