<?xml version="1.0" encoding="utf-8"?>
<!-- Generator: Adobe Illustrator 24.0.3, SVG Export Plug-In . SVG Version: 6.00 Build 0)  -->
<svg version="1.1" xmlns="http://www.w3.org/2000/svg" xmlns:xlink="http://www.w3.org/1999/xlink" x="0px" y="0px"
	 viewBox="0 0 200 200" style="enable-background:new 0 0 200 200;" xml:space="preserve">
<style type="text/css">
	.st0{fill:#FFFFFF;stroke:#111111;stroke-width:3;stroke-linecap:round;stroke-linejoin:round;stroke-miterlimit:10;}
	.st1{fill:#FFFFFF;stroke:#111111;stroke-width:3;stroke-linecap:square;stroke-linejoin:round;stroke-miterlimit:10;}
	.st2{fill:none;stroke:#111111;stroke-width:3;stroke-linecap:round;stroke-linejoin:round;stroke-miterlimit:10;}
</style>
<g id="Layer_1">
</g>
<g id="Layer_4">
	<rect x="37.48" y="30.65" class="st0" width="42.13" height="119.13"/>
	<rect x="79.61" y="34.23" class="st0" width="45.79" height="115.53"/>
	<rect x="89.33" y="21.92" class="st0" width="25.7" height="12.09"/>
	<line class="st0" x1="101.86" y1="11.98" x2="101.86" y2="21.27"/>
	<rect x="46.74" y="41.36" class="st0" width="7.07" height="7.09"/>
	<rect x="46.74" y="55.41" class="st0" width="7.07" height="7.09"/>
	<rect x="46.74" y="69.63" class="st0" width="7.07" height="7.09"/>
	<rect x="46.74" y="83.86" class="st0" width="7.07" height="7.09"/>
	<rect x="63.34" y="41.36" class="st0" width="7.07" height="7.09"/>
	<rect x="63.34" y="55.41" class="st0" width="7.07" height="7.09"/>
	<rect x="63.34" y="69.63" class="st0" width="7.07" height="7.09"/>
	<rect x="63.34" y="83.86" class="st0" width="7.07" height="7.09"/>
	<rect x="45.07" y="93.17" class="st0" width="6.24" height="7.45"/>
	<rect x="42.66" y="108.49" class="st0" width="6.24" height="7.45"/>
	<line class="st0" x1="70.11" y1="95.35" x2="70.11" y2="141.14"/>
	<line class="st0" x1="79.61" y1="95.35" x2="79.61" y2="141.14"/>
	<line class="st0" x1="89.33" y1="95.35" x2="89.33" y2="141.14"/>
	<line class="st0" x1="90.49" y1="53.4" x2="113.05" y2="53.4"/>
	<line class="st0" x1="90.49" y1="64.4" x2="113.39" y2="64.4"/>
	<line class="st0" x1="90.49" y1="76.18" x2="113.39" y2="76.18"/>
	<rect x="128.62" y="85.67" class="st0" width="8.71" height="8.71"/>
	<rect x="128.62" y="119.85" class="st0" width="8.71" height="8.71"/>
	<g>
		<rect x="146.69" y="149.61" class="st0" width="10.12" height="21.31"/>
		<rect x="133.97" y="41.63" class="st0" width="35.56" height="107.72"/>
		<circle class="st0" cx="151.76" cy="59.41" r="10.26"/>
		<circle class="st0" cx="151.76" cy="95.23" r="10.26"/>
		<circle class="st0" cx="151.76" cy="130.79" r="10.26"/>
		<line class="st0" x1="135.01" y1="76.67" x2="169.02" y2="76.67"/>
		<line class="st0" x1="135.01" y1="112.49" x2="169.02" y2="112.49"/>
		<path class="st0" d="M140.2,41.36c0,0,11.16-16.66,22.58,0.27L140.2,41.36z"/>
		<path class="st0" d="M133.71,47.34h-23.88c0,0,0,6.23,9.23,7.79c9.23,1.56,14.65,11.94,14.65,11.94V47.34z"/>
		<path class="st0" d="M133.71,82.9h-23.88c0,0,0,6.23,9.23,7.79c9.23,1.56,14.65,11.94,14.65,11.94V82.9z"/>
		<path class="st0" d="M133.71,118.98h-23.88c0,0,0,6.23,9.23,7.79c9.23,1.56,14.65,11.94,14.65,11.94V118.98z"/>
		<path class="st0" d="M169.53,47.34h23.88c0,0,0,6.23-9.23,7.79c-9.23,1.56-14.65,11.94-14.65,11.94V47.34z"/>
		<path class="st0" d="M169.53,82.9h23.88c0,0,0,6.23-9.23,7.79c-9.23,1.56-14.65,11.94-14.65,11.94V82.9z"/>
		<path class="st0" d="M169.53,118.98h23.88c0,0,0,6.23-9.23,7.79c-9.23,1.56-14.65,11.94-14.65,11.94V118.98z"/>
	</g>
	<path class="st0" d="M94.25,191.94H22.13c-5.81,0-10.51-4.71-10.51-10.51v-79.69c0-5.81,4.71-10.51,10.51-10.51h72.12
		c5.81,0,10.51,4.71,10.51,10.51v79.69C104.77,187.23,100.06,191.94,94.25,191.94z"/>
	<path class="st0" d="M90.89,162.32H26.48c-2.76,0-4.99-2.23-4.99-4.99V105.1c0-2.76,2.23-4.99,4.99-4.99h64.41
		c2.76,0,4.99,2.23,4.99,4.99v52.23C95.88,160.08,93.65,162.32,90.89,162.32z"/>
	<line class="st0" x1="24.12" y1="169.23" x2="92.59" y2="169.23"/>
	<polyline class="st0" points="21.49,135.98 31.04,135.98 36.96,145.86 44.53,117.55 47.82,135.33 52.76,135.33 57.04,143.56 
		59.67,134.34 64.28,134.34 70.86,116.56 75.14,134.01 80.74,134.01 85.68,146.19 89.3,134.01 94.89,134.01 	"/>
	<circle class="st0" cx="62.63" cy="179.76" r="3.95"/>
	<circle class="st0" cx="76.46" cy="179.76" r="3.95"/>
	<circle class="st0" cx="90.28" cy="179.76" r="3.95"/>
</g>
<g id="Layer_6">
</g>
</svg>
