<?xml version="1.0" encoding="utf-8"?>
<!-- Generator: Adobe Illustrator 24.1.2, SVG Export Plug-In . SVG Version: 6.00 Build 0)  -->
<svg version="1.1" id="Layer_1" xmlns="http://www.w3.org/2000/svg" xmlns:xlink="http://www.w3.org/1999/xlink" x="0px" y="0px"
	 viewBox="0 0 500 399" style="enable-background:new 0 0 500 399;" xml:space="preserve">
<style type="text/css">
	.st0{fill:#E8CDC4;}
	.st1{fill:#B1C569;}
</style>
<path class="st0" d="M207.61,315.62c9.76,10.48,23.35,21.35,29.77,24.51c12.66,6.22,27.44,7.78,39.58,12.78
	c33.5,13.79,65.15,3.27,97.43-0.15c19.96-2.12,29.46-21.11,44.53-31.32c10.56-7.16,23.32-11.99,31.55-21.9
	c20.86-25.11,36.58-52.58,39.08-86.48c2.33-31.68,0.46-62.31-11.68-92.13c-4.75-11.67-14.59-19.71-18.81-31.87
	c-6.75-19.44-19.22-35.41-36.55-47.05C369.95,6.71,314.4,2.64,255.16,23.57c-40.28,14.23-64.63,42.63-80.8,80.21
	c-3.34,7.76-6.71,15.5-10.26,23.16c-3.78,8.16-4.61,24.26-6.69,32.55c-5.48,21.8-6.1,63.05,11.55,102.51
	C175.82,282.9,187.15,294.97,207.61,315.62z"/>
<path class="st1" d="M229.7,187.33c-15.05-16.54-31.46-34.93-54.52-41.04c-8.69-2.3-21.93-7.14-30.34-8.43
	c-22.75-3.49-42.63,1-62.41,13.7c-12.51,8.04-23.31,17.59-33.97,27.27c-20.31,18.45-35.02,39.48-35,69.57
	c0.01,20.26,3.9,38.85,10.18,57.51c23.62,70.89,80.37,98.08,151.22,73.34c19.91-6.95,33.49-22.06,49.68-33.87
	c3.85-2.81,13.7-11.03,16.55-17.59c9.59-22.09,14.74-41.68,11.04-62.56C254.45,264.5,251.11,210.88,229.7,187.33z"/>
</svg>
