<?xml version="1.0" encoding="utf-8"?>
<!-- Generator: Adobe Illustrator 24.1.2, SVG Export Plug-In . SVG Version: 6.00 Build 0)  -->
<svg version="1.1" id="Layer_1" xmlns="http://www.w3.org/2000/svg" xmlns:xlink="http://www.w3.org/1999/xlink" x="0px" y="0px"
	 viewBox="0 0 859 743" style="enable-background:new 0 0 859 743;" xml:space="preserve">
<style type="text/css">
	.st0{fill:#4A75B2;}
	.st1{fill:#EAB422;}
	.st2{fill:#DD5C4F;}
</style>
<path class="st0" d="M256.2,350.2c7.6,16.5,19.7,35,26.2,41.4c12.8,12.5,30,20.3,42.7,31.1c35,29.9,77.3,29.8,117.6,38.4
	c24.9,5.4,43.9-13.8,66.1-20.2c15.6-4.5,32.9-5.2,46.8-13.9c35.1-22,65-49,81.4-88.9c15.4-37.3,25.2-75,22.4-115.8
	c-1.1-16-9.8-29.6-10.1-45.9c-0.4-26.1-9.2-50.3-25.5-71.3c-49.4-63.4-114.9-90.3-194.6-88.5C375,17.8,334.4,42.4,300,81.4
	c-7.1,8-14.2,16-21.6,23.9c-7.8,8.3-15.2,27.5-21,36.6c-15.2,24.1-32.3,73.7-26.7,128.3C230.8,298.1,239.7,317.2,256.2,350.2z"/>
<path class="st1" d="M333.7,204.1c-11.6-25.9-24.1-54.6-49.5-71.1c-9.6-6.2-23.6-17.3-33.3-22.2c-26.1-13.2-51.8-15.7-80.7-8.2
	c-18.3,4.7-35.1,12-51.8,19.4c-31.8,14.2-57.9,33.8-69.8,70.1c-8,24.5-10.7,48.4-10.5,73.4c0.4,94.9,58.1,150.2,153.4,148.4
	c26.8-0.5,49.1-13.4,73.4-21.2c5.8-1.9,20.9-7.9,26.9-14.7c20.3-22.9,34.3-44.5,38.1-71.1C333,307,350.2,241,333.7,204.1z"/>
<path class="st2" d="M600,543.5c-33.8,3-68.1,0.2-100.4,10c-25.7,7.8-52.3,2.5-77.1,7.7c-41.3,8.8-82.4,16-124.6,16.7
	c-4.1,0.1-7.4,1.3-10.7,4.5c-28.2,27-64.8,41.4-97.3,61.7c-24.2,15.1-46.5,35.8-77.3,39.8c-6.7,0.9-13.9,8.6-18.2,15
	c-9.4,14-23.2,22-37.2,29.1c-11.7,6-25.5,7.8-35.5-3.5c-9.5-10.9-7.9-23,0.7-34.7c23.6-32.2,53.8-57.3,87.2-77.9
	c37-22.7,74.9-44.9,114.7-62.2c54.8-23.9,110.4-49,170.5-55c38.9-3.9,78.9-3.5,117.6,7.1c6.1,1.7,12,2.5,17.8,0.2
	c23.3-9.5,47.9-5.6,71.8-5.9c13.6-0.2,19.3,8.4,8.1,19.2C602,523,605,532.9,600,543.5z"/>
<g>
	<path d="M441.6,433.2c-0.7,2.9-4.4,3.9-6.4,1.7c-3-3.2-4.5-7.5-3.5-11.2c4.2-15.1,8.5-30.2,13.1-45.1c2-6.7,1.4-8.2-5.7-8
		c-13.1,0.5-26.2,1.4-39.4,1.9c-2.9,0.1-6,0.1-8.7-0.7c-9.1-2.5-8.3-2.4-12.2,7.2c-4,9.7-8.1,19.4-12.7,28.8
		c-2.1,4.4-5.5,4.1-7.9-0.3c-2.8-5-3.4-9.3,0.5-14.7c5.4-7.4,9.1-15.8,9.4-25.6c0.1-4.7,3.9-9.3,6.3-13.8
		c11.2-21.2,24-41.5,38.5-60.7c2.6-3.4,4.9-3.1,6.9-0.2c3.3,4.8,6.7,4.3,10.8,1.2c6-4.4,12.1-8.6,18.4-12.6
		c7.2-4.6,11.3-2.8,16.9,3.3c8.9,9.7,9.4,20.4,7,32.3c-1.8,8.8-2.4,17.7-3.8,26.6c-0.5,3.2,0.9,4.2,3.7,4.9
		c13.9,3.3,28,3.6,42.3,3.9c9.5,0.2,18.9,3.1,28.2,5.5c5,1.3,7.9,0.9,10.8-3.7c10.2-16.4,18.7-33.9,32.1-48.2c2.7-2.9,4.9-6.2,7-9.5
		c1.7-2.7,3.8-4.1,6.9-3c2.6,0.9,5.3,1.8,7.5,3.3c4.2,2.8,4.6,6.6,1,9.9c-14.9,13.6-25.1,30.6-34.5,48.2c-1.3,2.4-2.8,4.8-4.2,7.1
		c-4.2,7.1-9.3,13.6-10.4,22.3c-0.5,3.7-3.2,7.1-4.8,10.8c-2.7,6.3-5.8,12.4-7.6,18.9c-2.2,7.7-5.4,9.8-12.1,5.6
		c-2.8-1.8-5.7-4.1-7.5-6.9c-2.2-3.5-4.6-3.9-8.2-3.2c-11.1,1.9-22.2,2.5-32.3-3.5c-4.4-2.6-8.2-6.3-11.6-10.1
		c-3.2-3.5-2.7-7.6,0.9-11c3.1-3,6.3-5.9,9.2-9.1c0.1-0.1,0.2-0.2,0.3-0.4c1.5-2.2,0-5.4-2.7-5.6c-0.2,0-0.3,0-0.5,0
		c-5.5,0.4-11.1,0.6-16.4,2c-2.5,0.6-5.4,3.4-6.3,5.8c-5.3,14.2-10.2,28.6-15,43C443.5,424.4,442.6,428.7,441.6,433.2z M434,347.6
		c5,0,10-0.2,15,0c5.3,0.2,7.3-2.4,8-7.3c0.8-5.8,2.4-11.5,3.3-17.2c1.5-9.9,2.9-19.8,4.1-29.6c0.5-4.1-2-5-5.1-3.5
		c-3.4,1.6-6.5,3.9-9.6,6c-10.8,7.2-21.6,14.3-32.2,21.7c-3.4,2.4-6.7,5.2-9.2,8.5c-2.8,3.5-4.6,7.7-6.9,11.5
		c-3,5.1-2.2,7.1,3.7,7.9C414.6,346.8,432.9,347.8,434,347.6z M515.1,389.5c0.6,0.3,1.2,0.5,1.9,0.4c9-0.5,17.3-5.8,19.4-12.2
		c0.3-0.8,0.3-1.7,0.2-2.6c-0.2-2.2-2.2-3.7-4.4-3.3c-0.6,0.1-1.2,0.3-1.7,0.6c-5.4,3.1-10.7,6.3-15.7,9.9c-0.7,0.5-1.2,1.2-1.6,2.1
		c-0.9,1.8-0.2,4,1.6,5C514.8,389.4,514.9,389.4,515.1,389.5z"/>
	<path d="M844.5,363.5c0.4,1.3,0.6,2.8,0.4,4.2c-0.9,8.9-0.7,17.6-3.6,25.2c-3.7,9.8-10.2,18.7-16.1,27.6c-3,4.5-8.2,6-13.4,4.9
		c-4.5-1-9-2.6-13-4.7c-6.1-3.2-6.2-8.4-2.8-14.4c4.9-8.6,8.9-17.8,13-26.8c1.3-2.9-0.6-4.5-3.3-4.2c-5.3,0.7-10.4,1.4-14,6.5
		c-3.1,4.3-7.5,7.6-11,11.6c-3.4,4-6.7,8.2-9.3,12.7c-1.6,2.6-2.7,3.6-5,1.4c-3.2-3.2-6.2-6.5-5.4-11.7c0.2-1.7,0.3-3.6-0.4-5.1
		c-3.8-8.5,0.5-14.2,5.8-20.2c3.5-3.9,5.9-8.9,8.2-13.7c3.8-8,10.5-10,18.5-9.4c10.2,0.7,20.3,1.5,30.4,2.4c7.5,0.6,14.1,3.5,19,9.3
		C843.4,360.2,844,361.9,844.5,363.5z"/>
	<path d="M733.5,420.5c-0.6,0.4-1.3,0.3-1.8-0.1c-2.9-2.5-6.2-4.8-8.3-7.8c-2.7-3.9-5.6-3.6-9.7-3.5c-8.2,0.3-17.1,1.4-24.5-1.3
		c-15.5-5.6-22.1-16.6-18.9-33c1.1-3.8,4.3-6.9,6.1-8.2c10.7-7.4,20-10.2,33.4-10.4c7.5-0.1,13.9,2.1,19.6,6.9
		c2.4,2,4.8,3.6,7.2-0.3c0.5-0.9,3.4-1.4,4.2-0.8c3.1,2.1,5.9,4.7,8.4,7.5c0.6,0.7-0.1,3.4-1,4.4c-8.6,9.2-12.1,21.2-16.9,32.4
		c-0.9,2.1,1,5.5,1.6,8.2c0.4,1.5,0.9,2.9,1.3,4.4C734.4,419.4,734.1,420.1,733.5,420.5C733.6,420.5,733.5,420.5,733.5,420.5z
		 M695.3,392.3c0.4,0,0.8,0,1.2,0c3.1-0.2,6.1-0.5,9.2-0.7c8-0.7,17.4-11.2,16.7-19.2c-0.1-1.4-2.4-3.4-3.8-3.5
		c-1.1-0.1-3,2-3.5,3.5c-0.5,1.5,0.8,3.4,0.5,5c-0.1,0.6-0.3,1.3-0.5,1.9c-1.1,3.1-5,4.1-7.5,2l0,0c-5.1-4.5-12.2-4.9-16.6,0
		c-1.2,1.3-1.9,3-2.6,4.8c-0.8,2.1,0.4,4.5,2.5,5.2C692.1,391.6,693.1,392.1,695.3,392.3z"/>
	<path d="M626.5,404.9c-0.6-2.2-0.4-4.5,0.6-6.6c1.5-3.1,3.4-6.9,5.5-10.8c2.9-5.5,6.4-10.7,8.9-16.3c0.9-2,0.4-5.5-0.9-7.2
		c-0.8-1-4.7-0.5-6.7,0.5c-17.6,8.9-30.9,22.3-41,39.2c-3.5,5.9-6.4,6.3-11.8,2.3c-1.3-1-2.7-2-4.2-2.8c-4-2.2-4.3-5.5-2.2-8.7
		c6.5-9.8,13.2-19.3,19.8-29c0,0,0,0,0,0c0.9-1.3,2.1-2.4,3.5-3.2c10.2-6,19.4-12,29.4-16.7c1.3-0.7,3.5,0,4.8,0.6
		c11.5,5.2,20.5,13.4,27.1,24.1c3.2,5.3,1.2,10.3-1.4,15.1c-5.1,9.5-10.1,19.2-15.5,28.5c-0.9,1.5-4,2.8-5.9,2.5
		C632.8,416,628.2,410.6,626.5,404.9z"/>
</g>
<g>
	<path d="M276.9,206.9c10,0,20.1-0.6,30,0.3c4.5,0.4,9.1,3.1,13,5.8c3.8,2.6,2.8,6.3-1.6,7.8c-0.7,0.2-1.9,0.4-2.6,0.4
		c-20.5,0.2-41,0.8-61.4,0.2c-11.6-0.3-22.1-5.7-31.6-12.3c-12.5-8.7-17.1-24.3-13-40.2c2.6-10.3,9.1-18.1,15.3-26.2
		c7.8-10.1,15.9-20,23.6-30.3c3-4,5.3-8.5,7.4-13c6.1-13.1,25.4-10.8,31.7-0.9c2.8,4.3,6.3,6.3,10.9,6.8c8.8,0.9,17.6,1.4,26.3,2.3
		c3.8,0.4,7.5,1.1,11.1,2.1c0.8,0.2,1.6,0.9,2.3,1.6c1,1,0.8,2.7-0.4,3.4c-0.8,0.5-1.5,0.8-2.3,0.8c-13.8-1.1-27.6-2-41.2-4
		c-8.1-1.2-14.8,1.5-20,6.4c-6.4,6-11.3,13.5-16.7,20.5c-2.6,3.4-0.2,4.9,2.8,5c5.9,0.2,11.8-0.7,17.6-0.1c5.5,0.6,11,2.3,16.3,4.1
		c0.2,0.1,0.5,0.2,0.7,0.4c2.4,1.7,1.4,5.5-1.5,6.1c-0.5,0.1-1,0.2-1.5,0.1c-16.5-0.7-32.3,3.4-47.9,8c-8.4,2.5-13.9,18.6-11.6,28.4
		c2.3,9.5,9.5,12.9,17.6,14.5C258.8,206.6,275.9,206.9,276.9,206.9z"/>
	<path d="M468.3,232.8c-0.8,0.1-1.6,0.1-2.4,0.1c-13.8-0.3-26.9-2.2-39-9.2c-8.6-5-11-11.1-5.6-19.3c8.3-12.4,15.3-26.1,27.7-35.3
		c12.8-9.5,27.5-12.8,42.7-8.5c13.7,3.9,16.2,18.3,6,28.3c-7.4,7.2-16.9,10-26.7,11.6c-6.8,1.1-13.7,1.2-20.6,1.5
		c-5.3,0.2-10.8,5.2-11,10.5c-0.2,4.2,2.7,6,5.9,6.8c4.3,1.1,8.9,2.3,13.3,2.1c16.9-0.7,33.9-2,50.8-3.1c0.5,0,1-0.2,1.5-0.2
		c3.6-0.3,7.8-0.6,8.4,3.9c0.6,4.3-3.8,5-6.9,5.4C497.7,229.4,483,231.1,468.3,232.8z M464,186.3c4.9-0.9,11.3-4,15.3-6.9
		c1.1-0.8,1.7-2.6,1.3-3.3c-0.5-1-2-2-3.1-2.1c-6.8-0.6-12.4,2.3-17,7.1c-0.7,0.7-0.9,2.4-0.6,3.3
		C460.3,185.3,462.3,186.8,464,186.3z"/>
	<path d="M370.6,130.4c0-0.6,0.4-1.1,0.9-1.2c4.2-0.9,8.9-1.6,13.4-3c2.4-0.7,5.1-2.3,6.5-4.2c6-8.6,11.7-17.5,17.5-26.2
		c1.6-2.3,6.5-1.7,10.3,1c3,2.1,1.6,4.1,0.1,6.1c-3.4,4.7-6.8,9.3-10.3,13.9c-0.7,0.9-0.8,2.2-0.2,3.2l0,0c0.6,1,1.7,1.6,2.9,1.4
		c14.9-1.8,29.9-3.5,45.2-5.3c0.6-0.1,1.2,0.4,1.3,1c0.2,1.6,0.4,3.6,0.6,5.9c0.1,0.8-0.5,1.6-1.4,1.5c-0.3,0-0.5-0.2-0.6-0.4
		c-2.3-3.7-5.9-1.9-7.4-0.7c-7.2,5.1-15.1,9.6-24.3,11c-8.4,1.3-16.8,2.6-25,4.3c-1.6,0.3-3.5,2.4-4.1,4.1c-3.6,11-6.4,22.2-10.3,33
		c-2.6,7.3-6.6,14.2-10.1,21.2c-2.9,5.8-4.8,11.8-4.2,18.4c0.6,6.5,3,9.6,9.5,10.1c8.3,0.7,16.5,0.8,24.3-3.3
		c1.7-0.9,4.6-0.2,7.1,0.7c1.8,0.6,2.9,2.4,2.7,4.2c-0.1,0.8-0.3,1.5-0.6,2.1c-0.9,1.5-3.3,2.5-5.2,3c-15.3,4.1-29.5,2.1-41.9-8.4
		c-6.3-5.4-8.1-16.9-4.7-25c6.4-15.1,12.5-30.2,18.6-45.4c1.3-3.3,1.8-7,2.6-10.6c0.7-2.9-0.7-3.8-3.5-3.2c-1.9,0.4-3.9,1.2-5.6,0.7
		c-1.4-0.4-2.8-2.3-3.4-3.8C370.6,134.9,370.7,132.9,370.6,130.4z"/>
	<path d="M592.7,91.2c-1,3.6-2.5,7.6-3.4,11.8c-1,4.8-2.3,9.9-2,14.7c0.9,17.9-4.3,34.4-10.9,50.6c-3.9,9.6-7,19.4-11.3,28.8
		c-4,8.7-9.2,17-13.9,25.4c-2.6,4.6-6,8.7-5.6,14.7c0.4,5.7-3.5,7.7-8.5,4.9c-1.5-0.9-3-1.8-4.5-2.6c-4.1-2.2-6-5.3-3.5-9.8
		c3.2-5.9,6.1-12,9.8-17.6c7.8-12,13.3-24.9,17.8-38.3c4.2-12.4,9.3-24.5,13-37c1.9-6.5,2.2-13.6,2.3-20.4
		c0.2-10.2,2.7-19.7,6.2-29.2c1.3-3.6,3.6-5.6,7.6-4.3C589.3,84.1,592.9,85.7,592.7,91.2z"/>
</g>
</svg>
