<?xml version="1.0" encoding="utf-8"?>
<!-- Generator: Adobe Illustrator 24.1.0, SVG Export Plug-In . SVG Version: 6.00 Build 0)  -->
<svg version="1.1" id="Layer_1" xmlns="http://www.w3.org/2000/svg" xmlns:xlink="http://www.w3.org/1999/xlink" x="0px" y="0px"
	 viewBox="0 0 300 55" style="enable-background:new 0 0 300 55;" xml:space="preserve">
<g>
	<path d="M170.42,52.03c-1.84-0.74-3.1-2.85-2.63-4.53c1.27-4.61,2.6-9.21,4-13.79c0.63-2.05,0.43-2.51-1.74-2.43
		c-4.01,0.14-8.01,0.41-12.02,0.58c-0.89,0.04-1.82,0.03-2.66-0.21c-2.79-0.77-2.55-0.72-3.73,2.19c-1.21,2.96-2.47,5.91-3.87,8.79
		c-0.65,1.35-1.67,1.24-2.41-0.09c-0.84-1.52-1.03-2.84,0.16-4.49c1.65-2.27,2.78-4.81,2.88-7.82c0.05-1.43,1.18-2.85,1.91-4.23
		c3.43-6.49,7.32-12.68,11.74-18.54c0.79-1.05,1.48-0.96,2.11-0.05c1.01,1.48,2.04,1.3,3.31,0.37c1.83-1.34,3.7-2.63,5.62-3.85
		c2.19-1.39,3.46-0.85,5.17,1.01c2.73,2.96,2.86,6.22,2.13,9.86c-0.53,2.67-0.74,5.41-1.16,8.11c-0.15,0.98,0.26,1.29,1.13,1.5
		c4.25,1.01,8.56,1.09,12.91,1.19c2.89,0.06,5.78,0.94,8.61,1.7c1.51,0.4,2.4,0.29,3.29-1.13c3.13-4.99,5.71-10.36,9.8-14.73
		c0.82-0.87,1.48-1.9,2.14-2.91c0.53-0.81,1.16-1.24,2.11-0.9c0.79,0.28,1.62,0.56,2.3,1.02c1.29,0.87,1.42,2.01,0.3,3.03
		c-4.56,4.16-7.66,9.35-10.54,14.71c-0.4,0.74-0.85,1.46-1.29,2.18c-1.28,2.16-2.83,4.15-3.17,6.8c-0.15,1.14-0.98,2.18-1.45,3.29
		c-0.81,1.91-1.78,3.79-2.33,5.78c-0.66,2.35-1.65,2.98-3.71,1.71c-0.87-0.54-1.75-1.26-2.28-2.11c-0.67-1.06-1.4-1.18-2.52-0.99
		c-3.38,0.58-6.79,0.75-9.88-1.07c-1.33-0.78-2.5-1.93-3.54-3.08c-0.97-1.08-0.83-2.32,0.28-3.37c0.96-0.91,1.93-1.8,2.81-2.78
		c0.3-0.34,0.35-0.9,0.52-1.37c-0.47-0.16-0.95-0.49-1.41-0.46c-1.68,0.11-3.4,0.19-5.01,0.61c-0.76,0.2-1.63,1.03-1.91,1.78
		c-1.62,4.34-3.12,8.73-4.57,13.13C171.23,48.21,170.9,50.07,170.42,52.03z M168.44,24.57c0.01-0.1,0.01-0.2,0.02-0.3
		c1.53,0,3.06-0.05,4.59,0.01c1.61,0.07,2.24-0.72,2.45-2.22c0.24-1.77,0.73-3.5,1.01-5.26c0.47-3.01,0.88-6.03,1.26-9.05
		c0.16-1.26-0.61-1.53-1.57-1.07c-1.03,0.5-1.97,1.2-2.94,1.84c-3.29,2.19-6.59,4.36-9.83,6.61c-1.04,0.72-2.04,1.6-2.82,2.58
		c-0.84,1.06-1.4,2.34-2.1,3.52c-0.92,1.55-0.68,2.18,1.13,2.41C162.57,24.03,165.51,24.27,168.44,24.57z M193.5,37.2
		c2.87-0.03,5.58-1.71,6.22-3.73c0.19-0.58-0.04-1.3-0.07-1.95c-0.58,0.09-1.25,0.04-1.72,0.31c-1.64,0.93-3.26,1.92-4.8,3.02
		c-0.47,0.34-0.65,1.08-0.96,1.64C192.73,36.78,193.29,37.09,193.5,37.2z"/>
	<path d="M25.05,38.86c3.06,0,6.14-0.18,9.17,0.08c1.37,0.12,2.78,0.94,3.96,1.76c1.19,0.83,0.82,1.99-0.59,2.42
		c-0.15,0.05-0.31,0.09-0.47,0.09c-6.33,0.05-12.67,0.25-19,0.08c-3.55-0.1-6.74-1.74-9.63-3.75c-3.82-2.65-5.22-7.43-3.98-12.29
		c0.8-3.14,2.76-5.54,4.66-8c2.38-3.09,4.86-6.11,7.2-9.24c0.91-1.21,1.61-2.6,2.25-3.98c1.86-4,7.75-3.3,9.68-0.27
		c0.85,1.32,1.91,1.93,3.33,2.07c2.68,0.27,5.37,0.44,8.04,0.72c1.15,0.12,2.3,0.32,3.4,0.65c0.49,0.15,0.85,0.7,1.27,1.07
		c-0.47,0.23-0.96,0.7-1.41,0.66c-4.2-0.34-8.42-0.62-12.59-1.22c-2.48-0.36-4.53,0.47-6.12,1.96c-1.94,1.83-3.45,4.12-5.1,6.24
		c-0.81,1.04-0.06,1.5,0.84,1.53c1.79,0.06,3.61-0.22,5.38-0.03c1.69,0.18,3.37,0.7,4.99,1.26c0.52,0.18,0.84,0.95,1.25,1.45
		c-0.65,0.2-1.31,0.61-1.94,0.58c-5.05-0.22-9.86,1.05-14.61,2.45c-2.56,0.75-4.26,5.7-3.55,8.66c0.7,2.91,2.89,3.94,5.37,4.43
		c2.68,0.52,5.44,0.67,8.16,0.99C25.03,39.1,25.04,38.98,25.05,38.86z"/>
	<path d="M294.04,29.71c-0.37,2.95-0.22,5.87-1.18,8.38c-1.14,3-3.13,5.71-4.93,8.43c-0.9,1.36-2.5,1.85-4.09,1.5
		c-1.37-0.3-2.74-0.79-3.98-1.44c-1.86-0.98-1.91-2.57-0.87-4.4c1.5-2.63,2.71-5.43,3.98-8.18c0.4-0.87-0.18-1.38-1-1.28
		c-1.6,0.21-3.17,0.42-4.28,1.97c-0.94,1.31-2.3,2.31-3.35,3.54c-1.04,1.22-2.03,2.5-2.85,3.87c-0.48,0.8-0.83,1.09-1.52,0.41
		c-0.98-0.97-1.89-1.99-1.66-3.57c0.07-0.51,0.08-1.11-0.12-1.56c-1.17-2.59,0.14-4.33,1.76-6.17c1.05-1.2,1.79-2.72,2.49-4.18
		c1.17-2.44,3.2-3.04,5.64-2.87c3.1,0.22,6.2,0.46,9.29,0.73c2.3,0.2,4.31,1.08,5.81,2.85C293.64,28.29,293.79,29.11,294.04,29.71z"
		/>
	<path d="M83.15,46.82c-4.34-0.06-8.48-0.63-12.28-2.82c-2.63-1.51-3.37-3.41-1.7-5.9c2.54-3.8,4.68-7.96,8.46-10.78
		c3.91-2.91,8.4-3.92,13.04-2.6c4.17,1.18,4.95,5.58,1.82,8.64c-2.26,2.21-5.17,3.06-8.16,3.56c-2.06,0.35-4.19,0.38-6.29,0.46
		c-1.61,0.06-3.28,1.59-3.35,3.2c-0.06,1.28,0.83,1.82,1.81,2.08c1.32,0.34,2.71,0.69,4.05,0.63c5.17-0.22,10.34-0.61,15.5-0.94
		c0.16-0.01,0.31-0.06,0.47-0.07c1.08-0.08,2.37-0.17,2.56,1.18c0.18,1.32-1.17,1.54-2.11,1.66C92.38,45.74,87.76,46.26,83.15,46.82
		z M82.06,32.74c1.59-0.76,3.23-1.52,4.84-2.36c0.24-0.12,0.48-0.71,0.38-0.91c-0.16-0.31-0.6-0.62-0.94-0.65
		c-2.09-0.17-3.79,0.69-5.19,2.16c-0.2,0.21-0.29,0.72-0.18,1C81.07,32.25,81.51,32.38,82.06,32.74z"/>
	<path d="M259.66,46.71c-0.95-0.86-2.08-1.6-2.8-2.62c-0.83-1.19-1.72-1.11-2.97-1.07c-2.5,0.09-5.23,0.43-7.48-0.39
		c-4.73-1.73-6.79-5.19-5.83-10.17c0.12-0.65,0.66-1.37,1.22-1.76c3.26-2.27,6.81-3.74,10.88-3.81c2.29-0.04,4.24,0.63,5.98,2.09
		c0.73,0.62,1.46,1.09,2.21-0.1c0.16-0.26,1.02-0.42,1.29-0.23c0.93,0.66,1.81,1.43,2.57,2.28c0.18,0.21-0.03,1.03-0.32,1.34
		c-2.63,2.82-3.68,6.47-5.16,9.88c-0.28,0.64,0.29,1.67,0.5,2.5c0.14,0.57,0.34,1.12,0.51,1.68
		C260.06,46.46,259.86,46.58,259.66,46.71z M248.45,37.88c0,0.01,0,0.03,0,0.04c1-0.08,1.99-0.16,2.99-0.24
		c2.45-0.2,5.33-3.43,5.1-5.87c-0.04-0.42-0.72-1.02-1.16-1.07c-0.32-0.04-0.91,0.63-1.06,1.08c-0.15,0.45,0.24,1.05,0.15,1.54
		c-0.12,0.66-0.48,1.28-0.74,1.91c-0.58-0.24-1.28-0.35-1.73-0.74c-1.55-1.36-3.71-1.5-5.06,0c-0.65,0.72-0.88,1.81-1.3,2.73
		c0.83,0.21,1.66,0.42,2.49,0.62C248.24,37.9,248.35,37.88,248.45,37.88z"/>
	<path d="M53.64,15.19c1.35-0.29,2.9-0.52,4.39-0.97c0.73-0.22,1.55-0.69,1.97-1.29c1.85-2.62,3.56-5.34,5.33-8.01
		c0.48-0.72,2-0.53,3.15,0.3c0.9,0.65,0.49,1.24,0.03,1.87c-1.3,1.77-2.61,3.55-3.92,5.32c0.08,0.18,0.15,0.36,0.23,0.53
		c5.14-0.6,10.29-1.21,15.53-1.82c0.07,0.67,0.17,1.66,0.28,2.8c-0.26-0.12-0.56-0.15-0.66-0.31c-0.69-1.12-1.1-1.03-2.27-0.21
		c-2.21,1.55-4.62,2.93-7.41,3.36c-2.56,0.39-5.12,0.79-7.65,1.32c-0.49,0.1-1.08,0.73-1.24,1.24c-1.09,3.35-1.95,6.77-3.15,10.08
		c-0.81,2.24-2.01,4.33-3.08,6.47c-0.89,1.78-1.46,3.59-1.27,5.62c0.19,2,0.92,2.93,2.91,3.09c2.53,0.21,5.02,0.24,7.43-1.02
		c0.68-0.36,1.89,0.11,2.76,0.44c0.21,0.08,0.28,1.26,0.02,1.69c-0.29,0.46-1.01,0.77-1.6,0.92c-4.68,1.24-9.02,0.65-12.79-2.58
		c-1.91-1.64-2.49-5.16-1.45-7.62c1.94-4.6,3.83-9.23,5.68-13.87c0.4-1.02,0.55-2.14,0.79-3.22c0.2-0.9-0.22-1.15-1.06-0.97
		c-0.57,0.12-1.2,0.36-1.7,0.2c-0.44-0.14-0.87-0.7-1.04-1.16C53.66,16.8,53.72,16.12,53.64,15.19z"/>
	<path d="M227.08,40.5c0.5-0.98,1.24-2.53,2.05-4.05c0.89-1.67,1.95-3.26,2.72-4.98c0.27-0.61,0.13-1.68-0.27-2.21
		c-0.23-0.3-1.45-0.15-2.04,0.15c-5.38,2.71-9.44,6.82-12.53,11.96c-1.1,1.83-2,1.94-3.7,0.65c-0.42-0.32-0.88-0.58-1.33-0.86
		c-1.1-0.67-1.17-1.65-0.55-2.58c1.97-2.98,4.03-5.9,6.06-8.85c0.09-0.13,0.14-0.32,0.26-0.39c3.28-1.9,6.55-3.8,9.86-5.64
		c0.34-0.19,0.98-0.06,1.38,0.12c3.52,1.58,6.25,4.08,8.27,7.35c0.99,1.61,0.36,3.14-0.44,4.62c-1.56,2.91-3.08,5.85-4.74,8.71
		c-0.27,0.47-1.22,0.84-1.8,0.78C228.92,45.13,227.08,42.61,227.08,40.5z"/>
	<path d="M121.51,3.52c-0.32,1.08-0.77,2.32-1.04,3.6c-0.31,1.48-0.7,3.01-0.62,4.5c0.28,5.48-1.33,10.5-3.34,15.46
		c-1.18,2.92-2.14,5.94-3.46,8.79c-1.23,2.67-2.8,5.18-4.24,7.75c-0.79,1.41-1.82,2.67-1.71,4.48c0.11,1.73-1.08,2.34-2.6,1.48
		c-0.46-0.26-0.9-0.54-1.37-0.79c-1.25-0.68-1.82-1.61-1.08-2.98c0.97-1.81,1.87-3.66,2.98-5.38c2.37-3.65,4.06-7.6,5.45-11.7
		c1.28-3.78,2.83-7.47,3.95-11.29c0.58-1.98,0.66-4.15,0.7-6.24c0.06-3.11,0.82-6.03,1.89-8.9c0.41-1.09,1.11-1.7,2.31-1.3
		C120.47,1.37,121.56,1.84,121.51,3.52z"/>
</g>
</svg>
