<?xml version="1.0" encoding="utf-8"?>
<!-- Generator: Adobe Illustrator 24.1.2, SVG Export Plug-In . SVG Version: 6.00 Build 0)  -->
<svg version="1.1" id="Layer_1" xmlns="http://www.w3.org/2000/svg" xmlns:xlink="http://www.w3.org/1999/xlink" x="0px" y="0px"
	 viewBox="0 0 687 231" style="enable-background:new 0 0 687 231;" xml:space="preserve">
<g>
	<path d="M31.3,147.85c0.57,1.68,0.98,2.53,1.13,3.42c0.3,1.86-0.96,2.83-2.45,3.22c-1.58,0.42-2.37-0.81-2.46-2.15
		c-0.19-2.9-1.63-3.81-4.32-3.1c-2.06,0.55-3.58-0.2-4.67-2.08c-0.87,1.55,1.85,2.15,0.81,3.67c-0.87,1.27-2.2,1.57-3.54,1.87
		c-2.83,0.65-4.52-0.87-3.38-3.53c3.05-7.16,6.63-14.08,10.87-20.62c1.54-2.37,3.16-1.74,4.57,0.7c2.07,3.58,0.42,7.39,1.17,11.02
		c0.18,0.88-0.07,1.84,0.8,2.79c2.61,0.26,5.19-0.8,7.82-1.39c1.88-0.42,3.17-0.09,3.89,1.72c0.8,2.02-0.68,2.81-2.12,3.18
		C36.89,147.23,34.8,149.78,31.3,147.85z M24.55,143.68c0.08-2.1-0.16-4.08-1.11-6.35c-1.1,2.05-2,3.71-2.91,5.4
		C21.78,143.6,22.98,144.05,24.55,143.68z"/>
	<g>
		<path d="M582.97,211.7c-4.74,0.54-9.12,1.74-13.49,2.9c-0.18,1.93,0.59,3.51,0.98,5.17c0.21,0.88,0.33,1.9-0.72,2.42
			c-1.15,0.57-2.03-0.05-2.69-0.9c-0.49-0.62-1.05-1.38-1.11-2.11c-0.31-4.09-2.78-4.55-6.16-4.09c-2.14,0.29-4.36,0.22-6.53,0.11
			c-2.62-0.14-2.7,2.04-3.52,3.55c-0.83,1.52-1.12,4.3-3.41,3.42c-2.56-0.99-1.01-3.48-0.27-5.08c3.45-7.47,7.17-14.81,10.63-22.27
			c1.35-2.92,3-2.29,4.87-0.87c4.16,3.18,5.24,7.91,6.16,12.69c0.22,1.11-0.01,2.33,1.04,3.67c5.69-0.61,11.8,0.15,17.4-2.82
			c2.65-1.4,5.39-1.98,8.39-0.37c1.27-4.8,2.49-9.44,3.73-14.07c0.21-0.77,0.52-1.51,0.75-2.27c0.48-1.58,1.58-2.24,3.13-1.85
			c1.66,0.41,1.64,1.8,1.29,3.06c-0.99,3.51-2.19,6.97-3.14,10.49c-1.01,3.74-2.2,7.46-1.16,11.47c0.6,2.33-2.03,3.27-2.84,2.64
			c-2.46-1.89-4.49-0.49-6.64,0.06C584.61,217.95,583.49,217.23,582.97,211.7z M563.49,210.26c-0.76-3.65-1.09-7.27-3.84-10.09
			c-2.05,3.32-4.04,6.43-5.42,10.46C557.5,209.53,560.27,211.32,563.49,210.26z"/>
		<path d="M647.56,217.09c-3.33,3.84-5.81,3.42-8.09-0.95c-2.33,0.06-4.75,0.4-7.08-0.24c-2.35-0.64-3.13-2.08-1.95-4.4
			c2.23-4.38,9.61-7.09,13.98-5.01c2.66,1.27,2.38,4.09,1.64,5.86C645.1,214.65,645.13,215.98,647.56,217.09z"/>
		<path d="M617.27,210.52c-1.84-1.45-3.61-0.99-5.4-0.44c-0.42,1.1-0.55,2.14-0.48,3.34c0.15,2.41-1.82,3.67-3.68,3.63
			c-2.18-0.05-2.29-2.09-1.95-3.97c0.38-2.14,0.53-4.33,0.96-6.46c0.39-1.95,1.33-2.89,3.68-2.26c3.16,0.85,6.59,0.4,9.69,1.8
			c2.08,0.94,4.11,1.8,3.06,4.73c-0.27,0.76,0.22,1.26,0.66,1.82c1.1,1.42,0.94,2.71-0.52,3.85c-1.41,1.1-2.78,0.97-4.1-0.05
			C617.18,214.95,616.61,212.86,617.27,210.52z"/>
		<path d="M662.87,216.68c-0.41,0.23-0.53,0.27-0.61,0.35c-1.31,1.15-2.43,3.36-4.51,2.02c-1.73-1.12-1.85-3.43-1.61-5.3
			c0.25-1.94,1.52-3.45,3.81-2.97c1.64,0.34,1.53-0.93,1.99-1.73c0.5-0.88,0.88-1.92,2.23-1.72c1.26,0.18,2.23,0.87,2.49,2.06
			c0.88,3.98,3.66,6.75,6.08,9.73c0.91,1.12,1.27,2.22,0.6,3.43c-0.62,1.12-1.63,1.93-3.02,1.96c-1.58,0.03-2.63-0.77-3.03-2.27
			C666.62,219.76,664.95,218.14,662.87,216.68z"/>
	</g>
	<g>
		<path d="M184.84,8.99c-0.79,3.04-2.44,6.18-4.15,9.28c-1.93,3.5-4,6.91-5.71,10.54c-1.24,2.63-2.07,5.55-2.54,8.18
			c-0.63,3.54-3.04,3.6-5.15,4.53c-2.39,1.06-4.76,0.74-6.7-1.11c-1.99-1.9-1.72-4.09-0.46-6.27c1.45-2.51,3.66-4.4,6.4-4.81
			c2.51-0.38,3.4-1.81,4.32-3.71c2.77-5.72,6.64-10.92,7.6-17.46c0.34-2.28,2.38-2.6,4.29-2.48C184.42,5.78,185.09,6.89,184.84,8.99
			z"/>
		<path d="M83.71,33.55c2.03-1.21,3.18-2.22,3.6-3.87c0.3-1.17,1.02-2.05,1.9-2.8c1.46-1.25,3.15-1.59,4.73-0.43
			c1.74,1.29,0.92,2.82,0,4.24c-0.31,0.47-0.63,0.95-1.13,1.71c5.39,0.71,3.95-6.11,8.33-6.65c0.67,2.8,0.15,5.65-0.02,8.45
			c-0.05,0.91-1.11,1.93-1.86,1.76c-4.46-1-8.33,3.71-13.01,1.16c-1.07-0.59-2.42,0.93-3.61,1.54c-1.75,0.9-3.52,1.19-5.1-0.17
			c-1.51-1.29-0.95-2.87-0.32-4.43c0.95-2.33,1.68-4.76,2.76-7.02c0.93-1.95,2.52-3.67,4.88-2.7c2.58,1.06,1.41,3.18,0.7,4.97
			C85.11,30.48,84.57,31.61,83.71,33.55z"/>
		<path d="M141.25,29.48c1.95-5.43,3.96-11.5,6.34-17.43c0.87-2.17,3.22-2.81,5.28-1.7c2.14,1.16,0.8,3.08,0.16,4.54
			c-1.76,3.98-3.81,7.85-4.97,12.07c-0.72,2.6-1.03,5.23,1.34,7.29c1.17,1.01,2.47,1.88,0.95,3.61c-1.41,1.61-2.84,2.58-5.02,1.27
			C141.87,37.05,141.47,33.68,141.25,29.48z"/>
		<path d="M131.95,38.98c0.76,0.64,1.44,1.07,2.29,0.95c1.02-0.15,2.31-0.55,2.43,0.93c0.1,1.2-1.14,1.51-2.16,1.81
			c-1.31,0.39-2.57,0.96-3.89,1.31c-1.82,0.48-3.42-0.13-4.57-1.55c-1.14-1.4-0.93-3-0.13-4.51c1.11-2.08,2.26-4.14,3.37-6.16
			c-0.69-1.17-1.46-0.18-2.16-0.23c-1.79-0.13-2.91-0.87-2.19-2.84c0.24-0.66,0.42-1.27,0.39-1.97c-0.05-1.24,0.35-2.3,1.58-2.75
			c1.42-0.52,2.76-0.19,3.74,0.97c1.27,1.5,2.63,2.85,4.45,3.67c2.69,1.21,2.48,3.04,0.87,4.93
			C134.5,35.26,133.03,36.97,131.95,38.98z"/>
		<path d="M115.96,27.61c1.59,0,2.71,0.81,2.93,2.3c0.3,2.04,1.67,4.43-0.5,6.08c-3.14,2.38-6.83,3.76-10.76,3.98
			c-2.12,0.12-3.42-1.51-3.08-3.63C105.32,31.44,110.84,27.32,115.96,27.61z"/>
	</g>
	<g>
		<path d="M256.23,39.42c1.9,0.77,3.59,0.73,5.28,0.87c1.67,0.14,3.42-0.19,5.09,0.69c-0.22,2.12-2.25,2.02-3.36,2.35
			c-4.8,1.4-9.78,3.14-14.14-1.23c-0.99-0.99-2.17-0.59-3.24-0.31c-2.12,0.55-4.33,0.56-6.44,0.99c-4.41,0.89-6.23-3-9.08-4.83
			c-1.19-0.76-0.6-3.21,1.33-3.8c1.34-0.41,2.2-1.01,2.74-2.24c1.55-3.53,4.75-3.97,8.02-4.1c1.59-0.07,2.97,0.79,3.7,2.14
			c0.78,1.46-0.41,2.55-1.23,3.65c-1.17,1.57-2.96,2.4-5.01,3.94c2.85,0.27,5.02,0.61,7.12-0.37c0.1-0.3,0.26-0.54,0.22-0.72
			c-1.62-6.81,1.05-7.43,7.06-5.91c0.33,0.08,0.66,0.21,0.97,0.35c1.99,0.87,4.24,1.55,4.68,4.06
			C260.42,37.53,257.63,37.7,256.23,39.42z"/>
		<path d="M288.33,38.24c-4.68,2.68-9.11,5.3-14.52,4.95c-3.58-0.23-6.14-2.66-6.34-5.68c-0.18-2.68,2.22-5.39,5.36-6.28
			c2.09-0.6,4.05-0.08,6.44,0.52c0.02-5.5,2.5-10.19,3.87-15.2c0.36-1.32,0.79-2.66,1.48-3.83c0.87-1.47,2.21-2.34,4.05-1.55
			c1.93,0.82,2.06,2.44,1.46,4.04c-0.88,2.35-2.03,4.6-3.09,6.88C284.44,27.61,283.53,33.02,288.33,38.24z"/>
		<path d="M213.11,32.42c-1.59,2.13-2.82,3.96-4.24,5.63c-1.19,1.41-2.32,3.53-4.63,2.5c-2.11-0.94-1.49-3.04-1.32-4.85
			c0.21-2.17,0.42-4.34,0.54-6.51c0.08-1.5,0.6-2.68,2.02-3.29c1.41-0.61,2.75-0.42,3.7,0.81c1.22,1.58,2.86,1.05,4.39,1.04
			c5.38-0.02,6.31,0.86,6.68,6.28c0.12,1.77-0.42,3.68,1.29,5.12c0.71,0.6,0.61,1.64-0.2,2.06c-1.74,0.91-2.68,3.38-5.22,2.73
			c-1.38-0.35-1.59-1.33-1.65-2.61C214.32,38.54,214.53,35.67,213.11,32.42z"/>
		<path d="M298.86,34.57c-3.18-3.63-3.49-6.11-1.01-8.21c1.93-1.63,5.74-1.6,7.24,0.05c1.21,1.33,1.08,1.78-1.07,3.81
			c3.73,4.24,3.71,4.49-0.77,8.31c-1.13,0.97-2.18,2.05-3.39,2.91c-1.7,1.21-3.55,1.28-4.89-0.46c-1.43-1.86-0.05-3.21,1.35-4.29
			C297.2,36.01,298.46,35.82,298.86,34.57z"/>
	</g>
	<g>
		<path d="M377.78,135.49c-1.41-0.1-2.79-0.18-3.03-1.76c-0.22-1.43,0.23-3.15,1.54-3.45c3.03-0.71,2.85-3.2,3.51-5.26
			c0.62-1.96,0.42-5.29,3.23-4.69c3.44,0.74,1.19,3.68,0.88,5.73c-0.08,0.55-0.35,1.07-0.62,1.87c2.82,0.45,5.46-0.25,8.11-0.39
			c1.41-0.07,3.16-0.87,4.07,0.78c0.6,1.09,0.48,2.54-0.4,3.59c-1.17,1.41-2.83,2.1-4.56,1.51c-1.14-0.39-2.21-0.65-3.33-0.44
			c-6.42,1.23-5.18-0.11-6.31,5.99c-0.4,2.14-0.54,4.33-0.73,6.5c-0.06,0.63-0.38,1.62,0.37,1.82c1.44,0.4,2.42,0.83,1.65,2.55
			c-0.8,1.8-1.7,3.74-3.62,4.37c-2.05,0.67-2.5-0.96-2.52-2.63c-0.06-4.49,0.62-8.9,1.43-13.3
			C377.6,137.5,377.65,136.69,377.78,135.49z"/>
		<path d="M346.5,142.99c-1.84,1.34-2.22,3.87-4.52,4.27c-2.16-2.44-2.71-10.32-0.87-12.85c1.49-2.05,4.02-1.41,6.01-1.85
			c1.6-0.36,1.87,1.95,2.37,3.28c0.95,2.57,0.69,5.54,3.63,7.35c1.73,1.06,0.2,2.74-0.82,3.71c-1.3,1.25-2.91,1.57-4.1-0.18
			C347.49,145.7,347.14,144.44,346.5,142.99z"/>
		<path d="M359.79,147.37c-3.59-0.23-5.09-2.73-3.68-5.7c1.56-3.29,4.89-4.5,8.02-5.27c2.71-0.66,5.02,1.17,6.78,3.25
			c1.36,1.61,1.01,3.61-0.6,4.39C366.85,145.74,363.21,147.17,359.79,147.37z"/>
	</g>
	<g>
		<path d="M32.17,30.05c2.83-0.87,4.51,0.57,5.86,2.61c0.82,1.24,1.69,2.38,2.84,3.38c1.45,1.26,1.95,2.88,0.4,4.49
			c-1.6,1.67-3.28,0.83-4.56-0.32c-1.34-1.21-2.33-2.81-3.48-4.23c-3.97,2.19-6.06,1.09-6.87-3.57c-0.86-4.92,0.5-9.48,2.68-14.48
			c-2.77,0.55-5.06,0.99-7.34,1.48c-1.95,0.41-3.92,0.46-5.78-0.16c-1.4-0.46-2.36-1.63-1.68-3.23c0.56-1.3,1.77-2.74,3.15-1.93
			c4.22,2.48,8.54,0.54,12.79,0.72c1.56,0.06,3.35-0.74,4.46,0.88c1.13,1.65,0.19,3.25-0.51,4.84
			C32.87,23.41,30.86,26.15,32.17,30.05z"/>
		<path d="M50.59,33.57c4.74,4.2,9.63-0.03,14.19,0.69c0.09,0.44,0.25,0.74,0.16,0.87c-3.6,5.45-14.92,6.51-19.32,1.82
			c-2.63-2.8-2.89-7.17-0.6-10.08c2.37-3.02,7.04-4.06,10.26-2.15c1.52,0.9,2.7,2.17,2.57,4.16c-0.12,1.93-1.44,2.73-3.06,3.26
			C53.5,32.56,52.21,33.02,50.59,33.57z"/>
		<path d="M15.92,32.03c0.12-1.94,0.23-3.88,0.35-5.82c0.13-2.07,0.94-3.65,3.27-3.49c2.14,0.15,2.13,1.72,2.16,3.49
			c0.08,3.99-1.26,7.86-0.69,11.92c0.23,1.65-1.33,3.34-3.24,3.25c-1.93-0.1-2.43-1.71-2.25-3.55c0.19-1.93,0.25-3.87,0.37-5.81
			C15.91,32.03,15.92,32.03,15.92,32.03z"/>
	</g>
	<g>
		<path d="M71.78,147.59c1.62,0.1,2.98,0.18,4.34,0.26c3.69,0.23,6.97-0.08,8.48-4.38c0.67-1.9,2.06-3.54,3.76-4.83
			c2.88-2.19,5.92-1.52,7.09,1.87c0.93,2.69,3.28,5.66,0.66,8.33c-2.93,2.98-7.35,4.59-10.99,3.27c-3.5-1.27-6.2-0.33-9.27,0.18
			c-3.22,0.53-6.54,0.97-8.81-2.11c-1.51-2.04-0.13-7.07,2.3-9.84c1.75-2,3.92-3.2,6.52-3.39c1.65-0.12,3.47,0.38,3.69,2.3
			c0.23,2.01-1.36,2.62-3.15,2.8C73.09,142.4,72.21,143.41,71.78,147.59z M88.2,146.98c1.97,0.42,3.72,0.37,4.75-1.45
			c0.36-0.63-0.43-1.1-1.15-1.31C89.38,143.53,89.1,145.5,88.2,146.98z"/>
		<path d="M118.09,147.79c-1.87,1.24-3.48,2.86-5.07,0.14c-0.14-0.23-0.59-0.52-0.77-0.45c-1.72,0.65-3.38,0.79-3.66-1.49
			c-0.33-2.7,1.01-4.9,3.1-6.5c1.71-1.3,2.96,0.07,4.18,1.11c0.26,0.22,0.53,0.41,0.79,0.61c5.13-2.3,5.13-2.3,7.32,1.61
			c0.87-1.35,2.03-2.21,3.6-1.62c2.46,0.93,1.33,3.36,1.9,4.91c0.65,0.96,1.54,0.63,2.29,0.77c0.7,0.13,1.35,0.3,1.62,1.06
			c-2.74,3.32-4.38,3.68-7.99,1.46c-0.73-0.45-1.06-0.35-1.75-0.08C120.64,150.48,120.49,150.39,118.09,147.79z"/>
		<path d="M149.03,153c-2.26-1.37-4.51-1.96-6.95-0.55c-0.72,0.41-1.67-0.39-1.98-1.04c-0.64-1.3-1.2-2.39-2.95-2.13
			c-0.28,0.04-0.84-0.49-0.94-0.85c-0.96-3.27,2.35-4.28,3.57-6.39c0.85-1.45,2.61-0.94,3.43,0.34c0.85,1.33,1.6,1.85,3.13,1.26
			c0.4-0.15,1.33,0.14,1.51,0.49c1.58,3.15,4.88,3.19,7.56,4.39c1.06,0.48,2.71,0.91,2.47,2.45c-0.28,1.79-1.99,1-3.13,1.18
			C152.85,152.45,150.89,152.06,149.03,153z"/>
		<path d="M187.36,145.41c-0.16,1.36-0.76,2.33-1.68,3.17c-1.15,1.05-2.42,1.44-3.77,0.8c-1.36-0.64-0.73-2-0.7-3.08
			c0.02-0.8,0.16-1.61,0.35-2.38c0.45-1.76,0.73-4.35,2.74-4.27c2.46,0.09,5.52-1.19,7.46,1.72c1.41,2.12,2.05,4.41,1.32,6.83
			c-0.56,1.87-2.8,1.98-4.08,0.43C188.26,147.73,188.7,146.33,187.36,145.41z"/>
		<path d="M166.98,151.23c-3.48-0.25-4.32-1.65-3.17-4.4c2.24-5.36,7.38-6.68,11.08-2.85c1.87,1.93,1.67,3.68-0.71,4.87
			C171.75,150.06,169.25,151.19,166.98,151.23z"/>
	</g>
	<g>
		<path d="M69.35,75.14c-5.88-1.82-12.18-0.49-18.42-1.85c2.55-3.51,12.69-4.12,18.63-1.59C69.49,72.84,69.42,73.99,69.35,75.14z"/>
		<path d="M43.44,92.25c-2.9-0.74-6.73-0.31-7.33-3.97c-0.59-3.6,3.12-4.38,5.49-6.03c2.79-1.94,5.14-3.05,7.21,0.7
			c1.28,2.32,2.7,4.79,1.32,7.39C48.66,93.11,45.67,91.76,43.44,92.25z"/>
		<path d="M17.77,79.66c2.44,3.78,7.65,2.91,11.14,5.56c1.35,1.03,1.64,2.68,0.78,4.01c-0.77,1.2-1.29,3.22-3.42,2.71
			c-1.6-0.38-2.09-1.61-1.88-3.17c0.12-0.92-0.15-1.53-1.16-1.74c-0.89-0.19-1.59-0.03-2.08,0.75c-0.79,1.25-1.56,2.52-2.34,3.78
			c-0.6,0.99-1.44,1.42-2.6,1.19c-0.99-0.2-1.78-0.68-1.78-1.76c0-2.95-0.06-5.91,0.21-8.84C14.76,80.87,15.37,79.39,17.77,79.66z"
			/>
		<path d="M62.52,91.54c-1.2,2.12-2.46,3.04-4.45,2.37c-2.09-0.7-2.25-2.39-2.04-4.19c0.48-4.08,0.95-8.17,1.56-12.23
			c0.2-1.34,0.71-2.73,2.62-2.44c1.75,0.26,2.13,1.42,2.15,2.95c0.03,2.9-1.02,5.59-1.57,8.38C60.37,88.43,59.96,90.35,62.52,91.54z
			"/>
	</g>
	<g>
		<path d="M304.2,142.95c1.84,1.07,3.53,0.74,5.22,0.5c1.11-0.16,2.14,0,2.63,1.1c0.6,1.34-0.56,1.81-1.41,2.33
			c-3.02,1.83-6.36,2.01-9.59,1.12c-1.92-0.53-3.52-0.47-5.29,0.16c-1.84,0.66-3.77,0.98-5.72,0.67c-4.02-0.64-4.69-1.76-3.51-6.03
			c-1.46,0.01-3.32,0.58-3.37-1.84c-0.03-1.66,3.04-5.13,4.49-5.06c2.75,0.14,6.48,4.7,6.07,7.46c1.55,0.81,2.49,0.59,2.89-1.36
			c0.55-2.71,1.48-5.29,3.65-7.22c2.13-1.89,4.77-1.83,6.72,0.19c2.06,2.15,0.5,3.72-0.93,5.28
			C305.37,141.02,304.52,141.65,304.2,142.95z"/>
		<path d="M215.32,149.66c2.39-0.26,4.52-0.53,6.65-0.7c1.05-0.08,2.24,0,2.44,1.33c0.2,1.31-0.99,1.65-1.91,2.09
			c-0.2,0.1-0.44,0.13-0.66,0.2c-7.75,2.8-7.78,2.8-8.19,11.01c-0.16,3.09-0.49,6.2,0.06,9.29c0.1,0.55,0.1,1.19-0.08,1.7
			c-0.39,1.09-0.96,2.17-2.34,2.17c-1.51,0-1.53-1.41-1.56-2.27c-0.11-2.75,0.2-5.51,0.07-8.26c-0.18-4.05,1.68-8.15-0.36-12.16
			c-0.17-0.33-0.03-0.95,0.17-1.32c4.91-9.12,6.03-19.32,8.38-29.16c0.3-1.24-0.05-3.28,1.87-3.15c2.03,0.15,1.64,2.04,1.59,3.54
			c-0.18,5.46-3.14,10.2-3.96,15.51C216.97,142.81,215.59,146.01,215.32,149.66z"/>
		<path d="M257.04,133.29c2.82,0.17,5.45,0.2,8.03,0.53c1.47,0.19,3.32,0.93,3.14,2.61c-0.22,2.05-2.21,1.36-3.65,1.39
			c-1.72,0.03-3.44,0.12-5.14,0.32c-2.37,0.28-5.03-0.22-5.21,3.74c-0.16,3.54,0.79,5.51,4.41,5.84c0.98,0.09,1.87,0.35,2.01,1.47
			c0.17,1.39-1.07,1.66-1.96,2.02c-5.02,2.03-8.98-0.85-8.88-6.28c0.14-7.79,3.86-14.25,7.57-20.7c0.89-1.55,2.37-3.02,4.18-1.61
			c1.9,1.48,0.49,3.05-0.67,4.38C259.31,128.82,257.91,130.73,257.04,133.29z"/>
		<path d="M271.34,141.36c1.93-1.77,3.76-3.62,5.97-2.06c2.27,1.6,0.01,3.44-0.53,5.22c1.6,1.21,3.89-0.61,5.37,1.17
			c0.09,1.57-1.07,2.06-2.19,2.61c-4.65,2.29-9.31,1.24-13.92-0.05c-1.28-0.36-1.61-1.65-1.34-2.83c0.54-2.3,0.67-4.95,3.31-6.04
			C269.58,138.76,270.52,139.9,271.34,141.36z"/>
		<path d="M231.56,144.7c1.86,1.19,3.16,1.1,4.01-0.91c0.41-0.97,1.11-1.76,2.05-2.24c1.82-0.94,4.11,0.4,3.38,2.13
			c-0.96,2.27-0.03,3.59,1.42,5.13c-1.29,1.42-2.85,2.17-4.34,1.47c-2.3-1.07-4.4-0.47-6.65-0.13c-4.03,0.61-5.56-1-5.01-5.07
			c0.09-0.68,0.15-1.44,0.5-1.98c1.01-1.57,0.93-4.75,3.84-3.86C233.77,140.15,231.73,142.63,231.56,144.7z"/>
		<path d="M306.16,162.57c-0.89-1.71-0.24-2.93,0.36-3.94c1.34-2.25,2.54-4.52,3.51-6.96c0.6-1.49,1.69-3.27,3.85-2.47
			c2.12,0.79,2.03,2.86,1.34,4.35C313.34,157.62,310.2,160.54,306.16,162.57z"/>
	</g>
	<g>
		<path d="M306.94,90.48c4.43-0.07,7.64-0.03,10.84-0.21c2.28-0.13,3.31,0.96,3.09,3.01c-0.23,2.05-1.68,1.92-3.36,1.52
			c-3.63-0.86-7.3,0.03-10.95,0.1c-7.23,0.12-9.58-2.79-7.75-9.85c1.11-4.29,2.37-8.54,2.98-12.95c0.22-1.57,0.61-3.53,2.77-3.13
			c2.16,0.39,2.25,2.22,1.78,4.04c-0.97,3.76-2,7.5-2.92,11.26C302.17,89.31,302.99,90.37,306.94,90.48z"/>
		<path d="M339.28,85.81c-0.47,5.97-6.57,10.29-12.38,8.7c-2.33-0.64-3.49-2.34-2.91-4.68c0.79-3.17,2.57-5.66,6.09-6.18
			c1.12-0.17,1.88-0.68,2.68-1.36c1.31-1.12,2.56-2.37,4.55-1.21C339.21,82.19,339.43,83.9,339.28,85.81z"/>
		<path d="M369.54,87.47c2.92,3.51,7.67,2.42,11.22,5.18c-3.45,3.4-7.27,2.03-10.76,1.49c-2.08-0.32-4.05-1.56-5.6-3.17
			c-1.61-1.66-3.39-3.35-2.18-5.97c1.37-2.97,3.57-5.06,7.01-5.28c2.22-0.14,3.73,0.93,4.28,3.15c0.53,2.14-0.72,3.14-2.49,3.81
			C370.49,86.88,370.02,87.21,369.54,87.47z"/>
		<path d="M349.65,85.58c2.1,0.57,3.69,0.31,4.51-1.65c0.49-1.16,0.78-2.49,2.48-2.3c1.67,0.18,2.12,1.47,2.55,2.79
			c-2.36,2.62-4.08,5.84-7.83,6.8c-2.62,0.67-5.24,1.36-6.98-1.55c-0.96-1.59,0.35-7.56,1.77-8.68c0.9-0.7,2.02-0.99,2.83-0.22
			C350.29,82.03,350.74,83.64,349.65,85.58z"/>
		<path d="M377.99,104.57c-0.37-2.48,0.85-3.73,1.95-4.93c1.7-1.86,3.58-3.57,5.3-5.41c1.15-1.23,2.39-2.03,3.79-0.68
			c1.35,1.3,1.32,3.16,0,4.27C385.83,100.51,382.59,103.24,377.99,104.57z"/>
	</g>
	<g>
		<path d="M453.97,213.31c0.3-2.5,1.55-5.26,5.1-7.69c2.32-1.59,4.18-4.17,7.07-5.25c2.55-0.95,4.98-0.88,6.92,1.3
			c0.57,0.64,1.24,1.48,0.68,2.48c-0.56,1-1.47,0.84-2.42,0.67c-3.99-0.7-6.44,0.85-8.96,4.12c-1.81,2.35-3.54,4.3-3.08,7.54
			c0.25,1.76,1.03,2.55,2.59,2.54c3.74-0.03,7.58,0.51,10.84-2.19c1.51-1.25,2.22-0.25,2.36,1.34c0.14,1.54-0.52,2.67-1.83,3.43
			c-4.46,2.57-9.29,3.45-14.24,2.23C454.95,222.83,453.56,219.9,453.97,213.31z"/>
		<path d="M497.57,217.45c6.59,3.36,12.7,0.4,18.6,1.56c-5.58,3.04-11.19,6.05-17.88,4.23c-3.24-0.88-5.39-3.07-5.74-6.55
			c-0.34-3.36,0.85-6.12,3.87-7.83c3.44-1.95,7.54-1.77,10.06,0.3c1.8,1.48,1.56,3.45-0.73,4.61
			C503.32,214.99,500.79,216.01,497.57,217.45z"/>
		<path d="M518.72,217.04c0.91-4.03,1.96-8.82,3.07-13.6c0.83-3.56,1.74-7.1,2.59-10.65c0.39-1.61,1.17-2.92,3.02-2.51
			c1.8,0.4,2.16,2.03,1.79,3.56c-0.8,3.32-1.68,6.64-2.78,9.87c-1.8,5.31-3.45,10.64-4.2,16.22c-0.17,1.23,0.33,3.3-1.64,3.19
			c-1.84-0.1-1.73-2.08-1.84-3.54C518.7,219,518.73,218.42,518.72,217.04z"/>
		<path d="M479.45,214.96c1.37-2.45-1.17-5.6,1.4-8.01c0.93-0.88,1.63-2.06,3.13-1.33c1.29,0.63,1.71,1.8,1.51,3.15
			c-0.2,1.34-0.68,2.66-0.76,4c-0.07,1.22-1.37,2.85,1.14,3.5c1.07,0.28,0.44,1.62-0.06,2.33c-1.15,1.66-2.21,3.64-4.65,3.46
			c-1.13-0.09-1.73-1.06-1.75-2.21C479.38,218.25,479.43,216.66,479.45,214.96z"/>
		<path d="M503.24,198.25c-4.03,0.74-8.26-0.19-12.42,0.74c-1.99,0.45-4,0.86-5.93,1.49c-1.12,0.36-1.81,0.16-2.25-0.78
			c-0.46-0.97-0.51-1.91,0.5-2.74c3.12-2.59,16.88-2.95,19.89-0.45C503.5,196.91,503.55,197.5,503.24,198.25z"/>
		<path d="M471.82,209.67c-0.11,2.42-6.85,6.56-8.73,5.64c-1.88-0.92-2.15-3.58-0.37-4.81c2.11-1.45,4.72-1.63,7.11-2.33
			C470.83,207.88,471.82,208.59,471.82,209.67z"/>
	</g>
	<g>
		<g>
			<path d="M422.05,36.51c-4.23,4.5-10.77,3.74-13.77-1.59c-2.4-4.26-4.03-4.37-6.78-0.43c-4.28,6.14-14.97,5.48-18.64-1.17
				c-0.81-1.46-0.35-2.87,0.52-4.18c1.1-1.66,2.86-2.15,4.63-2.69c2.04-0.62,4-0.52,5.35,1.15c1.52,1.9-0.05,3.35-1.46,4.68
				c3.27,2.9,4.97,0.4,6.99-1.77c-0.12-1.53-1.94-3.37,0.47-4.97c2.01-1.33,3.53-0.89,5.33,0.3c1.16,0.77,2.63,0.61,4.21,0.06
				c0.6-3.49,1.36-7.03,2.94-10.35c0.5-1.05,0.98-1.97,2.14-1.7c1.36,0.31,2.05,1.3,1.81,2.85c-0.19,1.23-0.17,2.48-0.26,3.98
				c2.45,0.25,5.01,0.15,7.58,1.54c0.23-1.76,0.35-3.22,0.61-4.65c0.29-1.64,0.84-3.54,2.92-2.96c1.61,0.45,2.68,1.72,1.96,4.01
				c-1.23,3.94-1.64,8.07-1.6,12.33c1.84,0.4,2.84-0.86,3.93-1.74c2.34-1.88,3.81-1.42,4.44,1.51c0.17,0.78,0.22,1.59,0.4,2.37
				c0.29,1.21,0.9,1.87,2.33,1.99c1.32,0.12,2.26-0.09,2.85-1.25c0.88-1.74,1.67-3.57,3.26-4.78c1.65-1.26,3.43-2.53,5.61-1.01
				c2.43,1.69-0.06,3.17-0.34,4.99c1.76,0.02,3.44,0.03,5.27,0.05c-0.07-1.1-0.35-2.1-0.14-2.98c0.47-1.98,1.4-3.63,3.8-2.05
				c1.49,0.98,3.03,0.98,4.61,0.62c4.22-0.96,5.32-0.07,5.35,4.76c2.79,0.17,5.6,0.34,8.61,0.52c-2.66,3.45-9.41,5.68-13.05,4.53
				c-2.2-0.7-3.22-2.08-2.22-4.95c-7.03,5.71-14.16,7.45-22.02,3.22c-3.87,4.16-6.56,3.29-8.65-2.77c-0.21-0.01-0.5-0.12-0.62-0.02
				c-1.85,1.55-4.04,2.81-6.29,1.66c-2.36-1.2-1.32-3.84-1.38-5.92c-0.04-1.24,0.13-2.49,0.21-3.82c-2.4-1.03-4.61-0.84-6.98-0.15
				c-0.18,0.87-0.04,1.84-0.57,2.76c-2.31,3.98-1.3,5.87,3.32,6.49C420.86,35.28,420.86,35.28,422.05,36.51z"/>
			<path d="M373.61,39.64c3.14-0.77,5.11-3.17,8.04-3.07c0.41,0.01,0.8,0.29,1.4,0.52c-1.54,3.53-5.55,3.66-7.75,6.23
				c0.77,1.92,1.62,3.89,2.34,5.91c1.11,3.09-0.4,5.09-3,6.41c-2.09,1.06-4.35,1.36-6.69,0.95c-5.06-0.88-6.61-4.35-3.1-8.06
				c3.28-3.46,3.8-6.33,1.91-10.93c-3.05-7.38,4.74-18.03,12.72-18.42c1.31-0.06,2.7,0.13,3.15,1.52c0.39,1.21-0.41,2.25-1.45,2.84
				c-1.18,0.67-2.47,1.16-3.73,1.69c-4.98,2.1-6.39,4.78-5.16,9.97C372.63,36.62,373.12,38.01,373.61,39.64z"/>
			<path d="M347.6,41.02c-3.81-0.18-5.3-2.46-3.9-5.96c1.63-4.08,7.4-7.79,11.73-7.6c3.07,0.13,3.49,2.59,4.12,4.74
				c0.64,2.22,1.12,4.5-1.46,6.03C356.26,39.32,349.74,41.12,347.6,41.02z"/>
			<path d="M512.64,29.64c4.69,1.2,8.83,2.26,13.73,3.51c-4.61,2.8-8.85,2.02-13.03,1.62c-0.34-0.03-0.67-0.15-1-0.24
				c-4.93-1.32-7.38-3.62-7.11-6.66c0.31-3.53,4.87-7.67,8.9-7.87c1.72-0.09,3.58,0.2,4.45,1.97c0.89,1.83-0.07,3.37-1.47,4.53
				C515.9,27.51,514.53,28.33,512.64,29.64z"/>
			<path d="M349.89,22.25c0.03,0-0.56,0.1-0.85-0.15c-4.79-3.99-9.96-1.45-15-0.93c-0.91,0.09-1.82,0.19-2.71,0.37
				c-2.12,0.43-3-0.79-3.25-2.56c-0.25-1.82,0.73-2.73,2.57-2.85c6.85-0.46,13.69-0.77,20.53-0.01c1.72,0.19,4.13-0.14,3.83,2.65
				C354.72,21.31,352.93,22.45,349.89,22.25z"/>
			<path d="M489.93,29.95c-1.44,1.38-1.45,3.1-2.19,4.5c-0.89,1.68-2.21,1.89-3.75,1.5c-1.61-0.41-1.56-1.69-1.34-3.04
				c0.5-3.05,1.4-5.99,2.74-8.76c1.24-2.58,2.86-2.55,4.32,0.01c0.47,0.83,0.81,1.46,1.92,1.61c3.49,0.47,5.1,3.16,6.5,5.94
				c0.61,1.21,1.21,2.75-0.73,3.39c-1.47,0.48-3.11,0.49-3.76-1.31C493,31.95,491.92,30.67,489.93,29.95z"/>
			<path d="M535.97,24.25c0.34,1.38,1.23,1.47,1.86,1.93c2.07,1.49,1.98,3.65-0.2,4.97c-1.56,0.94-3.22,1.73-4.81,2.62
				c-1.41,0.79-2.92,1.21-4.04-0.2c-1.01-1.27,0.27-2.31,0.9-3.33c0.29-0.47,0.74-0.84,1.23-1.36c-1.37-1.9-2.18-3.78-0.63-5.96
				c1.86-2.61,4.28-4.18,7.46-4.23c1.33-0.02,2.89,0.44,3.06,2.17c0.17,1.68-0.94,2.4-2.51,2.63
				C537.53,23.59,536.81,23.96,535.97,24.25z"/>
			<path d="M340.37,25.14c-0.73,2.15-1.46,4.3-2.18,6.45c-0.76,2.25-1.74,4.4-1.39,6.94c0.26,1.9-2.3,4.5-3.91,4.21
				c-2.39-0.44-2.68-2.24-2.21-4.18c1.14-4.76,2.3-9.53,3.64-14.24c0.53-1.88,1.88-3.19,4.1-2.7
				C340.33,22.04,340.49,23.48,340.37,25.14z"/>
			<path d="M547.65,25.86c0.47,2,1.8,4.25-0.9,5.38c-1.34,0.56-3.14,0.44-3.81-1.28c-0.56-1.45-0.95-3.08-0.92-4.62
				c0.05-2.38,4.28-5.82,6.61-5.58c1.06,0.11,1.92,0.7,2.38,1.72c0.51,1.11,0.14,2.03-0.77,2.72
				C549.44,24.79,548.56,25.28,547.65,25.86z"/>
		</g>
		<path d="M558.97,42.02c0.03-0.45,0.01-0.92,0.09-1.36c0.35-1.85,0.79-3.99,3.25-3.43c2.43,0.56,1.96,2.68,1.48,4.5
			c-0.2,0.76-0.61,1.48-0.75,2.25c-0.24,1.29,0.08,3.02-2.06,2.76c-1.94-0.24-2.06-1.83-2.11-3.36c-0.01-0.45,0.05-0.91,0.08-1.36
			C558.96,42.02,558.97,42.02,558.97,42.02z"/>
	</g>
	<path d="M437.53,215.99c-6.61-0.16-13.22-0.31-19.82-0.48c-0.36-0.01-0.72-0.02-1.07-0.13c-1.19-0.38-2.95-0.58-2.61-2.62
		c0.36-2.12,2.36-3.75,3.71-2.72c2.41,1.86,4.81,1.57,7.22,1.64c3.89,0.13,7.81,1.22,11.7-0.23c1.2-0.45,3.1-0.18,3.26,2.43
		C440.03,215.87,438.8,216.18,437.53,215.99z"/>
	<g>
		<path d="M512.51,129.18c2.24,0.13,4.4,0.27,6.57,0.39c1.26,0.07,2.49,0.19,3.67,0.77c1.06,0.53,2.21,0.92,1.88,2.43
			c-0.29,1.33-1.42,1.31-2.46,1.36c-1.82,0.09-3.64,0.13-5.46,0.25c-1.82,0.12-3.63,0.32-5.45,0.48c-1.31,4.85,0.02,7.15,4.81,8.22
			c0.67,0.15,1.37,0.18,2.04,0.3c0.99,0.17,1.83,0.72,1.97,1.68c0.14,1.01-0.76,1.54-1.57,2c-4.73,2.65-11.29-0.76-11.64-6.22
			c-0.48-7.61,1.78-14.7,4.67-21.62c0.56-1.35,1.56-2.52,3.17-1.79c1.81,0.82,1.37,2.6,0.86,3.94
			C514.61,123.92,512.69,126.08,512.51,129.18z"/>
		<path d="M491.7,151.57c-3.26-2.67-7.74-1.2-11.78-2.2c-3.65-0.9-4.77-4.11-2.49-7.13c0.95-1.26,2.14-2.41,3.41-3.35
			c5.57-4.13,9.96-0.24,11.15,4.1c0.72,2.64,1.95,3.63,4.33,3.9c1.1,0.12,2.24,0.51,2.22,1.71c-0.01,1.03-0.91,1.71-2.02,2.02
			C495.09,151.02,493.72,151.65,491.7,151.57z"/>
		<path d="M448.45,151.68c-2.18-0.21-4.29-0.12-5.04-2.2c-0.74-2.07,0.01-4,1.42-5.73c2.11-2.58,5.19-3.69,7.91-5.28
			c2.17-1.27,6.48,1.95,7.14,4.93c0.59,2.63-2.62,7.55-5.27,7.89C452.46,151.56,450.27,151.57,448.45,151.68z"/>
		<path d="M435.4,146.37c-1.33-0.84-2.33-1.39-3.23-2.06c-1.83-1.37-2.28-4.57-0.68-6.05c2.94-2.73,6.53-4.13,10.53-4.26
			c1.34-0.05,2.17,0.99,2.1,2.24c-0.09,1.5-0.66,2.96-2.43,3.28c-1.06,0.19-2.33-0.4-3,0.97c3.96,6.24,3.49,8.66-2.19,12.2
			c-1.86,1.16-3.64,1.75-5.03-0.35c-1.54-2.33-0.27-3.82,1.96-4.79C433.94,147.32,434.4,146.97,435.4,146.37z"/>
		<path d="M571.26,138.24c-2.02-0.27-4.17-1.17-3.3,2.48c0.46,1.94-1.38,2.69-2.59,3.65c-0.7,0.55-1.46,0.54-2.21-0.02
			c-1.35-1.01-1.19-2.35-0.85-3.74c0.11-0.45,0.25-0.88,0.37-1.32c0.63-2.32-0.55-6.12,2.41-6.56c3.74-0.56,7.92-0.67,11.49,1.72
			c1.31,0.88,1.62,2.14,0.98,3.27c-1.45,2.53,1.14,6.72-2.94,7.9c-1.95,0.56-3.36-1.14-3.57-3.21
			C570.92,141.18,571.16,139.91,571.26,138.24z"/>
		<path d="M545,144.86c-2.68-0.19-4.1-2.27-3.05-5.38c1.25-3.71,4.5-5.22,7.78-5.93c3.22-0.7,5.7,1.26,7.2,4.19
			c1.14,2.23,0.65,4.13-1.67,5.13C552.2,144.19,548.92,144.73,545,144.86z"/>
		<path d="M464.44,148.13c1.14-8.37,2.28-16.74,3.42-25.11c0.06-0.45,0.13-0.92,0.29-1.34c0.55-1.46,1.01-3.66,2.99-2.91
			c2.04,0.78,3.36,3.57,2.14,5.12c-2.2,2.78-2.27,5.87-2.7,8.93c-0.7,4.93-2.37,9.74-1.51,14.89c0.26,1.59-0.28,3.97-2.89,3.77
			C464.18,151.33,464.06,149.71,464.44,148.13z"/>
		<path d="M418.63,144.63c-0.11-1.9,0.75-4.41,1.48-6.92c0.4-1.39,1.42-2.5,3.08-2.04c1.84,0.51,1.84,2.16,1.14,3.34
			c-1.65,2.78-0.12,5.89-1.21,8.63c-0.62,1.56-0.78,4.13-3.3,3.53c-2.29-0.54-1.33-2.77-1.32-4.39
			C418.5,146.32,418.55,145.86,418.63,144.63z"/>
		<path d="M530.38,144.68c-0.18,1.13-0.92,2.39-2.39,2.63c-1.72,0.28-2.33-1.13-2.63-2.55c-0.35-1.68-0.82-3.36-0.88-5.06
			c-0.06-1.85,0.75-3.54,2.88-3.6c1.89-0.05,2.31,1.49,2.44,3.1C529.93,140.92,530.15,142.62,530.38,144.68z"/>
		<path d="M585.32,147.8c-0.58,1.85-1.97,3.2-4.02,3.43c-1.77,0.2-2.79-1.16-2.72-2.77c0.1-2.1,1.39-3.8,3.54-3.81
			C583.63,144.64,585.17,145.62,585.32,147.8z"/>
		<path d="M529.71,127.16c-0.11,1.37-0.88,2.46-2.11,2.22c-1.73-0.33-3.8-1.03-3.7-3.25c0.07-1.48,0.72-3.3,2.84-3.23
			C529.58,123,528.95,125.61,529.71,127.16z"/>
		<path d="M427.96,127.56c-0.6,1.33-0.54,3.35-2.78,3.26c-1.82-0.07-2.62-1.33-2.46-3.03c0.17-1.85,1.46-2.97,3.2-2.97
			C427.37,124.82,427.97,126.06,427.96,127.56z"/>
	</g>
	<g>
		<path d="M122.7,110.79c0.69-0.22,1.22-0.78,1.4-1.48c0.4-1.53,0.77-3.05,0.81-4.64c0.13-4.82,2.2-9.54,3.75-14.23
			c0.91-2.75,2.14-4.81,5.35-5.32c4.85,2.94-4.52,4.64-4.15,5.94c0.42,1.44,2,3,8,1c1.4-0.47,2.33-2.61,2.16-4.27
			c-0.45-4.3-2.69-6.88-7-7.9c0.77-1.33,1.54-2.59,2.23-3.89c0.83-1.56,1.74-3.27-0.44-4.42c-2.19-1.15-3.48,0.19-4.23,2.08
			c-1.55,3.93-2.98,7.92-4.53,11.86c-0.36,0.92-0.38,2.45-1.45,2.57c-4.46,0.5-8.89,1.8-13.53,1.1c-0.27-1.94,0.66-2.79,1.93-3.53
			c1.49-0.86,3.04-1.67,4.34-2.77c2.44-2.08,2.05-4.15-0.86-5.55c-2.07-1-3.82-0.12-5.3,1.15c-2.98,2.54-4.94,5.75-5.54,9.7
			c-0.45,2.93,1.55,5.41,4.51,5.57c5.17,0.28,9.67-1.95,14.27-4.2c-1.19,6.28-3.17,12.21-4.44,18.36c-0.21,1.05,0.26,2.11,1.16,2.69
			l0,0C121.6,110.88,122.17,110.96,122.7,110.79L122.7,110.79z"/>
		<path d="M213.8,72.33c3.98-0.37,7.35-1.32,10.55,0.61c-0.91,1.88-2.38,1.64-3.71,1.7c-7.65,0.34-13,6.07-12.66,13.54
			c0.06,1.29,0.82,1.77,2.01,1.84c0.98,0.06,2.07-0.41,3.05,0.75c-0.98,1.98-2.49,3.36-4.73,3.85c-3.56,0.77-5.16-0.66-5.08-4.33
			c0.05-2.68,1.05-5.17,1.46-7.76c0.99-6.21,5.17-11.07,6.9-16.95c0.19-0.65,0.61-1.23,0.95-1.82c0.81-1.43,1.94-2.46,3.64-1.63
			c1.74,0.85,1.54,2.39,0.84,3.86C216.08,67.94,215.06,69.85,213.8,72.33z"/>
		<path d="M97.33,88.8c-1.85-0.42-3.56-0.68-5.19-1.21c-3.15-1.02-4.52-3.69-3.37-6.76c1.61-4.29,4.9-6.88,9.21-7.99
			c1.51-0.39,3.8-0.6,4.05,1.9c0.22,2.19-0.97,2.9-3.25,2.5c-1.27-0.22-2.59,0.78-3.6,1.75c-0.91,0.86-2.04,1.79-1.65,3.17
			c0.41,1.44,1.87,1.49,3.13,1.61c1.71,0.16,3.45,0.16,5.14,0.46c2.95,0.52,3.86,3.06,1.9,5.34c-1.73,2.02-3.91,3.53-6.23,4.81
			c-1.23,0.68-2.7,1.4-3.66-0.12c-0.82-1.31,0.03-2.61,1.05-3.58C95.56,90.01,96.41,89.49,97.33,88.8z"/>
		<path d="M196.08,86.55c0.91,1.08,2.33,0.63,2.84,2c-2.06,1.68-4.54,2.43-6.96,1.69c-2.52-0.76-4.92-0.65-7.44-0.58
			c-2.31,0.06-4.93-0.46-5.66-2.99c-0.72-2.5,1.01-4.29,3.08-5.61c3.55-2.25,10.04-1.99,13.35,0.57
			C197.02,82.99,196.9,84.72,196.08,86.55z"/>
		<path d="M155.19,87.48c0.73,0.59,1.34,1.07,1.94,1.55c-2.47,3.09-5,3.59-7.34,1.13c-1.02-1.07-2.04-0.88-3.07-0.99
			c-2.74-0.31-3.41-1.95-2.38-4.09c1.8-3.72,4.73-6.47,8.58-8.03c1.35-0.55,3.14-0.29,3.65,1.08c0.75,2.02,1.65,4.25,0.5,6.48
			C156.6,85.51,155.95,86.33,155.19,87.48z"/>
		<path d="M178.55,88.33c-2.08,2.56-6.85,4.05-9.87,3.13c-3.2-0.97-4.04-2.96-2.52-6.07c0.45-0.92,1.02-1.77,1.67-2.91
			c-1.83,0.22-3.58-0.05-3.82-1.95c-0.18-1.48,0.96-2.83,2.1-3.74c1.45-1.16,2.82-0.18,4.05,0.71c4.43,3.2,4.99,5.03,2.62,8.63
			C174.63,87.05,177.28,85.95,178.55,88.33z"/>
		<path d="M233.36,90.69c-1.86-0.33-3.99-0.89-2.9-3.12c1.74-3.54,3.89-7.01,8.23-8.03c2.05-0.48,3.87,0.14,5.46,1.35
			c2.63,1.99,2.58,4.63-0.19,6.37C240.72,89.28,237.08,90.22,233.36,90.69z"/>
		<path d="M255.24,82.9c-1.04,1.27-1.62,2.66-1.88,4.31c-0.31,2.02-2.01,2.52-3.68,2.08c-1.71-0.45-2.32-1.73-1.39-3.49
			c0.37-0.7,0.53-1.51,0.87-2.24c0.88-1.92,1.24-4.57,3.89-4.7c5.85-0.28,7.12,0.54,8.6,4.99c0.42,1.28,0.56,2.71,0.55,4.08
			c-0.01,1.63-0.74,3.1-2.64,2.88c-1.61-0.18-2.57-1.37-2.61-3.11C256.91,85.06,256.91,85.06,255.24,82.9z"/>
		<path d="M226.04,88.64c-2.55,2.21-4.81,2.94-6.84,1.5c-2.12-1.5-1.22-3.89-0.56-5.96c0.42-1.31,1.19-2.2,2.75-1.93
			c1.46,0.25,2.35,1.31,2.18,2.6C223.32,86.68,223.86,87.89,226.04,88.64z"/>
		<path d="M272.56,91.55c-0.7,2.03-1.62,3.23-3.59,2.9c-1.54-0.26-2.64-1.17-2.19-2.83c0.42-1.52,1.12-3.12,3.2-2.93
			C271.9,88.86,271.92,90.57,272.56,91.55z"/>
	</g>
	<g>
		<path d="M551.48,76.83c1.6-1.65,2.77-2.9,4.57-3.25c3.14-0.61,5.06,1.09,6.39,3.55c1.39,2.59,0.8,4.86-1.65,6.59
			c-2.02,1.43-4.27,2.22-6.73,2.19c-1.3-0.02-3.01,0.28-3.07-1.8c-0.04-1.71,1.12-2.43,2.68-2.48c1.66-0.05,3.1-0.49,4.35-1.7
			c-1.85-5.19-5.22,1.9-7.15-1.48c-2.63,8.85-5.44,17.21-7.51,25.79c-0.27,1.12-0.37,2.12-0.16,3.32c0.41,2.33-1.46,3.41-3.29,3.5
			c-1.99,0.09-1.62-1.79-1.53-3.13c0.44-6.72,3.51-12.75,5.08-19.18c1.32-5.42,3.71-10.6,3.6-16.37c-0.03-1.58,0.83-2.91,2.77-2.81
			c1.97,0.1,2.01,1.5,1.91,2.97C551.65,73.8,551.59,75.06,551.48,76.83z"/>
		<path d="M480.13,94.29c-1.53-2.66,0.97-3.8,2.29-5.43c-6.19-1.25-7.15-3.61-3.66-8.89c1.58-2.39,3.45-4.58,6.32-5.55
			c1.5-0.5,3.11-0.59,3.99,0.88c0.98,1.63-0.33,2.59-1.44,3.71c-1.56,1.57-4.4,1.51-5.35,4.27c2.07,0.63,3.92,0.34,5.82,0.02
			c2.27-0.37,3.26,0.88,2.81,3.01C490.41,88.68,482.75,94.2,480.13,94.29z"/>
		<path d="M527.06,82c0.66-0.09,1.37-0.06,1.98-0.28c1.36-0.5,2.23,0.1,2.88,1.16c0.67,1.09,0.57,2.15-0.3,3.15
			c-1.88,2.17-3.84,4.25-6.21,5.89c-1.04,0.72-2.23,1.65-3.4,0.58c-1.32-1.21-0.28-2.59,0.35-3.73c0.42-0.75,1.26-1.27,1.88-1.86
			c-0.1-0.29-0.14-0.61-0.24-0.63c-4.78-1.17-5.45-3.35-2.17-7.08c1.23-1.4,2.7-2.48,4.44-3.15c1.71-0.66,3.26-0.3,4.13,1.36
			c0.96,1.84-0.69,2.31-1.85,2.98c-0.58,0.34-1.12,0.72-1.68,1.09C526.93,81.64,527,81.82,527.06,82z"/>
		<path d="M613.8,86.79c-1.28-0.25-2.81,0.07-3.36-1.4c-0.52-1.37,0.04-2.63,0.89-3.83c1.89-2.67,4.51-4.22,7.56-5.04
			c3.06-0.82,6.3,0.78,7.84,3.6c1.05,1.91,0.62,3.48-1.34,4.19C621.63,85.67,617.8,86.86,613.8,86.79z"/>
		<path d="M638.95,79.6c-2.19,0.59-3.23,1.44-2.91,3.51c0.41,2.59-1.51,3.19-3.4,3.17c-2.22-0.03-2.7-1.85-1.95-3.43
			c0.71-1.49-0.53-3.12,0.84-4.51c1.21-1.23,2.03-2.64,4.18-2.39c1.03,0.12,2.2-0.52,3.22-1c4-1.85,5.28-1.05,5.12,3.45
			c-0.06,1.57,0.46,2.9,1,4.28c0.73,1.88,0.4,3.58-1.63,4.14c-1.99,0.55-3.2-0.46-3.41-2.69C639.88,82.68,639.35,81.27,638.95,79.6z
			"/>
		<path d="M503.55,83.41c1.47,0.28,1.58-0.76,1.98-1.75c0.71-1.75,1.78-3.53,4.05-2.68c1.89,0.71,1.73,2.44,1.1,4.08
			c-0.12,0.31-0.41,0.74-0.3,0.93c2.94,5.39-1.66,3.18-3.36,3.06c-1.82-0.12-2.97,1.03-4.47,1.43c-4.17,1.12-5.79-0.19-4.89-4.31
			c0.39-1.77,1.01-3.49,1.58-5.22c0.5-1.53,1.61-2.42,3.14-1.73c1.4,0.63,2.4,1.8,1.62,3.62C503.67,81.65,503.07,82.44,503.55,83.41
			z"/>
		<path d="M592.31,86.1c-3.3,1.81-6.16,2.92-9.42,1.89c-1.21-0.38-2.03-1.4-2.39-2.74c-0.82-3.04,1.37-9.6,3.79-11.65
			c1.61-1.36,3.39-1.31,5.2-0.93c1.34,0.28,2.24,1.26,2.22,2.69c-0.01,1.32-1.1,1.65-2.18,1.74c-3.33,0.27-3.58,3.11-4.4,5.37
			c-0.4,1.1,0.69,1.39,1.51,1.88C588.19,85.26,590.08,84.57,592.31,86.1z"/>
		<path d="M597.19,84.72c0.78-2.54,1.77-5.47,3.66-7.97c0.72-0.96,1.75-1.61,2.98-0.81c1.29,0.84,1.88,2.01,1.12,3.52
			c-1.17,2.31-2.87,4.31-3.08,7.14c-0.11,1.4-1.91,1.36-3.19,1.16C597.17,87.53,597.02,86.41,597.19,84.72z"/>
		<path d="M572.98,78.46c-0.32,1.89-0.5,3.43-0.51,5.04c-0.01,2.31-2.1,3.12-3.86,2.95c-2.09-0.2-2.01-1.92-1.44-3.69
			c0.52-1.61,0.49-3.39,1.01-5c0.43-1.34,0.97-3.15,2.97-2.56C572.8,75.68,573.26,77.13,572.98,78.46z"/>
		<path d="M670.65,88.56c-2.07-0.01-3.07-1.15-2.92-2.79c0.18-1.99,1.54-3.4,3.61-3.35c1.88,0.05,2.7,1.46,2.65,3.29
			C673.92,88.03,672.14,88.25,670.65,88.56z"/>
		<path d="M613.22,60.87c1.57,0.09,2.44,1.18,2.39,2.45c-0.07,1.69-1.27,2.57-3.08,2.38c-1.27-0.14-2.4-0.66-2.18-2.05
			C610.58,62.18,611.33,60.82,613.22,60.87z"/>
		<path d="M571.63,68.13c1.24,0.31,2.3,1.02,2.31,2.45c0.01,2.09-1.86,2.09-3.2,2.29c-1.39,0.21-2.1-0.79-1.93-2.14
			C569,69.21,569.97,68.33,571.63,68.13z"/>
	</g>
	<g>
		<path d="M415.33,84.57c-1.83,0.14-1.7,1.38-2.13,2.24c-0.61,1.2-1.69,2.09-3.04,1.68c-1.42-0.43-1.73-1.93-1.43-3.14
			c0.69-2.77,1.44-5.51,1.73-8.37c0.11-1.1,0.91-1.97,2.01-2.05c1.21-0.08,2.61,0.72,2.6,1.77c-0.02,2.48,1.73,3.15,3.28,4.27
			c3.52,2.55,3.64,8.15,0.33,10.59c-0.83,0.61-1.67,1.32-2.79,0.73c-1.03-0.54-1.21-1.56-1.39-2.6
			C414.18,87.99,415.48,86.53,415.33,84.57z"/>
		<path d="M426.23,91.83c-0.73,0.05-2.05-0.35-2.57-1.87c-0.54-1.58-0.46-3.29,0.78-4.5c1.69-1.66,3.4-3.48,5.46-4.56
			c3.23-1.7,4.81,1.28,6.24,3.26c2.29,3.18,1.77,4.35-1.93,5.79c-1.8,0.7-3.65,1.27-5.5,1.82
			C428.18,91.93,427.57,91.81,426.23,91.83z"/>
		<path d="M449.58,70.56c0.04,0.77,0.16,1.56,0.41,2.37c1.21,0.82,2.69-0.45,4.17-0.62c1.66-0.19,2.72,0.27,3.42,1.6
			c0.49,0.93,0.62,2.03-0.21,2.9c-0.97,1.02-1.8,1.63-3.54,0.83c-2.37-1.1-6.02,1.1-6.72,3.64c-0.51,1.85-0.82,3.76-1.18,5.47
			c0.93,1.17,2.29-0.06,3.1,1.25c0,0.06,0.09,0.47-0.06,0.71c-1.3,2.07-2.94,4.54-5.52,3.74c-2.92-0.9-2.11-4.02-1.75-6.29
			c0.43-2.72,1.1-5.43,1.78-8.12c0.2-0.79-3.17-0.9-2.17-3.9c0.25-0.75,3.2-0.59,3.37-1.36c0.32-1.41,0.53-2.22,0.74-3.63
			c0.11-0.69,0.73-1.17,1.42-1.08l0,0c0.31,0.04,0.61,0.13,0.89,0.27l0.59,0.29C449.08,68.99,449.54,69.73,449.58,70.56z"/>
	</g>
</g>
</svg>
