<?xml version="1.0" encoding="utf-8"?>
<!-- Generator: Adobe Illustrator 24.1.0, SVG Export Plug-In . SVG Version: 6.00 Build 0)  -->
<svg version="1.1" id="Layer_1" xmlns="http://www.w3.org/2000/svg" xmlns:xlink="http://www.w3.org/1999/xlink" x="0px" y="0px"
	 viewBox="0 0 126 55" style="enable-background:new 0 0 126 55;" xml:space="preserve">
<style type="text/css">
	.st0{fill:#E9473B;}
</style>
<g>
	<path class="st0" d="M93.51,48.43c-0.38-3.73-0.76-7.45-1.14-11.23c-0.3,0.22-0.31,0.47-0.38,0.68c-1.14,3.34-2.29,6.68-3.41,10.03
		c-0.14,0.41-0.32,0.59-0.79,0.58c-1.23-0.04-2.46-0.04-3.69,0c-0.46,0.01-0.65-0.15-0.79-0.57c-1.11-3.41-2.25-6.82-3.39-10.23
		c-0.06-0.19-0.06-0.43-0.36-0.63c-0.38,3.81-0.76,7.56-1.14,11.36c-1.62,0-3.21,0-4.88,0c0.12-1.33,0.23-2.65,0.35-3.96
		c0.35-3.8,0.69-7.59,1.04-11.39c0.11-1.25,0.24-2.49,0.34-3.74c0.02-0.3,0.13-0.42,0.43-0.42c1.99,0,3.97,0.01,5.96-0.01
		c0.46,0,0.49,0.32,0.59,0.61c1.2,3.49,2.4,6.98,3.6,10.47c0.11,0.31,0.22,0.62,0.35,0.99c0.24-0.19,0.27-0.41,0.33-0.61
		c1.23-3.63,2.46-7.25,3.67-10.89c0.14-0.43,0.34-0.59,0.8-0.58c1.81,0.03,3.62,0.02,5.42,0c0.45,0,0.61,0.12,0.65,0.6
		c0.41,4.93,0.84,9.85,1.27,14.78c0.12,1.36,0.22,2.73,0.33,4.15C96.96,48.43,95.28,48.43,93.51,48.43z"/>
	<path class="st0" d="M60.71,13.81c-0.34,0.98-0.67,1.95-1,2.92c-0.88,2.57-1.77,5.14-2.62,7.72c-0.15,0.46-0.37,0.61-0.85,0.6
		c-1.19-0.03-2.39-0.03-3.58,0c-0.51,0.02-0.73-0.16-0.88-0.64c-1.11-3.42-2.25-6.83-3.38-10.23c-0.06-0.18-0.06-0.39-0.3-0.55
		c-0.2,0.78-0.2,1.54-0.28,2.3c-0.3,2.84-0.57,5.69-0.86,8.54c-0.02,0.24,0.05,0.57-0.34,0.57c-1.51,0.01-3.01,0-4.6,0
		c0.6-6.55,1.2-13.02,1.8-19.53c2.26,0,4.47,0,6.73,0c1.37,3.99,2.75,8,4.13,12c0.05,0,0.11-0.01,0.16-0.01
		c0.3-0.88,0.6-1.75,0.89-2.63c0.99-2.93,1.99-5.87,2.96-8.81c0.15-0.44,0.34-0.62,0.83-0.61c1.97,0.03,3.93,0.01,5.96,0.01
		c0.1,1.08,0.2,2.12,0.29,3.16c0.44,5.09,0.88,10.17,1.3,15.26c0.11,1.36,0.18,1.14-1.06,1.16c-1.13,0.01-2.27-0.02-3.4,0.01
		c-0.45,0.01-0.63-0.14-0.68-0.59c-0.24-2.53-0.5-5.06-0.75-7.59c-0.09-0.89-0.17-1.78-0.26-2.67
		C60.92,14.07,60.93,13.92,60.71,13.81z"/>
	<path class="st0" d="M89.93,15.31c-0.01,5.89-4.35,10.13-10.35,10.12c-6.01-0.01-10.34-4.29-10.31-10.22
		c0.02-5.9,4.34-10.11,10.36-10.1C85.66,5.12,89.95,9.36,89.93,15.31z M74.49,15.36c-0.03,0.4,0.05,0.88,0.14,1.34
		c0.71,3.4,4.36,5.16,7.33,3.55c1.8-0.98,2.91-3.27,2.67-5.47c-0.2-1.9-0.98-3.45-2.75-4.32C78.64,8.87,74.5,10.86,74.49,15.36z"/>
	<path class="st0" d="M120.79,48.48c-1.74,0-3.41-0.01-5.07,0.01c-0.29,0-0.37-0.17-0.44-0.39c-0.22-0.62-0.45-1.23-0.65-1.85
		c-0.1-0.31-0.26-0.43-0.6-0.43c-2.25,0.01-4.49,0.01-6.74,0c-0.33,0-0.51,0.09-0.61,0.42c-0.2,0.62-0.44,1.23-0.66,1.85
		c-0.07,0.21-0.13,0.4-0.42,0.4c-1.59-0.01-3.17,0-4.86,0c0.34-0.92,0.65-1.77,0.96-2.62c2.01-5.44,4.02-10.87,6.01-16.31
		c0.17-0.47,0.38-0.65,0.89-0.64c1.51,0.03,3.02,0.02,4.53,0.01c0.33,0,0.54,0.06,0.67,0.42c2.3,6.28,4.62,12.56,6.93,18.83
		C120.75,48.23,120.75,48.31,120.79,48.48z M112.89,41.46c-0.73-2.05-1.44-4.04-2.15-6.04c-0.06,0-0.11,0-0.17,0
		c-0.72,1.99-1.44,3.98-2.18,6.04C109.93,41.46,111.36,41.46,112.89,41.46z"/>
	<path class="st0" d="M5.3,35.19c0.98-1.19,1.93-2.35,2.92-3.55c0.89,0.69,1.8,1.24,2.83,1.56c1.5,0.46,3.02,0.54,4.49-0.06
		c1.13-0.46,1.21-1.7,0.21-2.4c-0.38-0.26-0.81-0.43-1.25-0.54c-0.96-0.24-1.93-0.46-2.89-0.69c-0.68-0.16-1.34-0.36-2-0.59
		c-4.65-1.6-4.12-7.26-1.57-9.33c1.23-0.99,2.62-1.56,4.16-1.78c2.59-0.37,5.11-0.12,7.51,0.97c0.6,0.27,1.16,0.61,1.7,1.12
		c-1.01,1.27-2.02,2.53-3.05,3.81c-0.85-0.5-1.67-0.93-2.57-1.19c-1.13-0.33-2.27-0.36-3.41-0.05c-0.77,0.21-1.17,0.67-1.2,1.3
		c-0.03,0.72,0.45,1.07,1.02,1.31c1.12,0.48,2.34,0.61,3.51,0.89c0.87,0.21,1.73,0.44,2.55,0.8c1.93,0.84,3.09,2.26,3.26,4.39
		c0.17,2.22-0.53,4.07-2.41,5.37c-1.4,0.97-2.99,1.36-4.65,1.49c-2.8,0.21-5.46-0.25-7.88-1.77C6.14,35.98,5.71,35.66,5.3,35.19z"/>
	<path class="st0" d="M37.39,26.57c0,1.36,0,2.63,0,3.9c0,0.19,0.05,0.4-0.11,0.67c-2.48,0-5.01,0-7.61,0c0,2.2,0,4.32,0,6.46
		c-0.73,0.12-1.4,0.05-2.07,0.06c-0.83,0.01-1.67-0.03-2.5,0.01c-0.52,0.02-0.68-0.14-0.68-0.67c0.03-2.44,0.01-4.89,0.01-7.33
		c0-3.59,0-7.19,0-10.78c0-0.23-0.04-0.48,0.08-0.74c4.54,0,9.1,0,13.69,0c0.17,0.41,0.07,0.85,0.08,1.28
		c0.02,0.91-0.02,1.83,0.01,2.74c0.02,0.48-0.15,0.61-0.61,0.6c-2.4-0.02-4.81-0.01-7.21-0.01c-0.8,0-0.8,0-0.8,0.82
		c0,0.79,0.02,1.59-0.01,2.38c-0.02,0.47,0.13,0.62,0.61,0.62c2.16-0.02,4.33-0.01,6.49-0.01C36.94,26.57,37.11,26.57,37.39,26.57z"
		/>
</g>
</svg>
