<?xml version="1.0" encoding="utf-8"?>
<!-- Generator: Adobe Illustrator 24.1.2, SVG Export Plug-In . SVG Version: 6.00 Build 0)  -->
<svg version="1.1" id="Layer_1" xmlns="http://www.w3.org/2000/svg" xmlns:xlink="http://www.w3.org/1999/xlink" x="0px" y="0px"
	 viewBox="0 0 171 39" style="enable-background:new 0 0 171 39;" xml:space="preserve">
<g>
	<path d="M63.71,1.47c0.55,0.11,1.12,0.18,1.65,0.34c3.3,0.99,5.27,3.2,5.84,6.59c0.39,2.3-0.03,4.46-1.38,6.4
		c-1.25,1.79-3,2.84-5.12,3.26c-2.03,0.4-4.02,0.24-5.91-0.67c-2.48-1.19-3.96-3.17-4.45-5.85c-0.41-2.24-0.1-4.39,1.15-6.34
		c1.25-1.95,3.06-3.09,5.31-3.56c0.32-0.07,0.65-0.12,0.97-0.18C62.42,1.47,63.07,1.47,63.71,1.47z M58.6,9.86
		c-0.01,0.83,0.17,1.6,0.55,2.34c1.35,2.61,4.94,2.99,6.75,0.68c0.85-1.08,1.1-2.34,0.93-3.69c-0.41-3.34-3.75-4.49-6.14-3.15
		C59.21,6.86,58.63,8.23,58.6,9.86z"/>
	<path d="M1.49,26.22c0.82-0.98,1.63-1.96,2.4-2.88c0.69,0.38,1.33,0.78,2.02,1.08c1.15,0.5,2.36,0.54,3.58,0.27
		c0.26-0.06,0.52-0.17,0.74-0.32c0.53-0.35,0.61-1.09,0.14-1.52c-0.26-0.24-0.6-0.45-0.94-0.55c-0.94-0.27-1.91-0.46-2.85-0.72
		c-0.65-0.18-1.3-0.37-1.91-0.63c-1.89-0.83-2.56-2.31-2.49-4.19c0.09-2.32,1.6-3.88,3.8-4.57c1.39-0.44,2.81-0.49,4.25-0.33
		c1.28,0.14,2.51,0.44,3.64,1.09c0.34,0.2,0.66,0.44,1.03,0.68c-0.88,1.1-1.73,2.16-2.59,3.23c-0.07-0.04-0.14-0.07-0.21-0.11
		c-1.19-0.75-2.47-1.21-3.9-1.07c-0.35,0.03-0.69,0.11-1.02,0.22c-0.48,0.15-0.75,0.5-0.76,1C6.4,17.37,6.7,17.68,7.1,17.82
		c0.61,0.22,1.24,0.41,1.87,0.55c1.18,0.26,2.37,0.48,3.47,1c1.64,0.79,2.48,2.08,2.53,3.91c0.07,2.42-1.28,4.04-3.21,4.73
		c-3.25,1.16-6.4,0.88-9.35-0.97c-0.33-0.2-0.62-0.47-0.92-0.71C1.49,26.3,1.49,26.26,1.49,26.22z"/>
	<path d="M52.57,17.93c-1.44,0-2.87,0-4.34,0c-0.31-3.08-0.63-6.17-0.94-9.26c-0.02,0-0.03-0.01-0.05-0.01
		c-0.15,0.44-0.31,0.89-0.46,1.33c-0.87,2.54-1.73,5.08-2.59,7.62c-0.09,0.26-0.2,0.36-0.49,0.36c-1.14-0.02-2.28-0.01-3.43,0
		c-0.21,0-0.3-0.06-0.37-0.26c-0.98-2.97-1.97-5.94-2.96-8.91c-0.03-0.08-0.05-0.16-0.14-0.24c-0.31,3.12-0.62,6.24-0.94,9.38
		c-1.37,0-2.73,0-4.12,0c0.5-5.38,0.99-10.76,1.49-16.15c1.88,0,3.74,0,5.62,0c1.14,3.3,2.27,6.6,3.43,9.98
		c0.14-0.41,0.27-0.76,0.39-1.11C43.65,7.76,44.63,4.88,45.6,2c0.05-0.15,0.09-0.25,0.29-0.25c1.71,0.01,3.42,0.01,5.13,0.01
		c0.05,0,0.1,0.01,0.18,0.01C51.65,7.16,52.11,12.53,52.57,17.93z"/>
	<path d="M62.76,27.82c-0.31,3.12-0.62,6.23-0.94,9.37c-1.37,0-2.74,0-4.12,0c0.5-5.39,0.99-10.76,1.49-16.17c0.12,0,0.22,0,0.31,0
		c1.67,0,3.34,0,5.01,0c0.23,0,0.31,0.07,0.39,0.29c1.08,3.17,2.18,6.34,3.27,9.51c0.02,0.05,0.05,0.11,0.09,0.2
		c0.29-0.85,0.57-1.66,0.84-2.48c0.82-2.42,1.64-4.84,2.46-7.26c0.05-0.15,0.08-0.26,0.28-0.26c1.72,0.01,3.44,0,5.16,0.01
		c0.04,0,0.08,0.01,0.15,0.02c0.46,5.38,0.92,10.76,1.39,16.15c-1.45,0-2.88,0-4.34,0c-0.31-3.08-0.63-6.16-0.94-9.25
		c-0.02,0-0.04-0.01-0.05-0.01c-1.06,3.09-2.11,6.18-3.17,9.27c-1.37,0-2.71,0-4.08,0c-1.04-3.13-2.08-6.26-3.12-9.39
		C62.8,27.82,62.78,27.82,62.76,27.82z"/>
	<path d="M80.12,37.19c0.33-0.9,0.66-1.79,0.99-2.68c1.62-4.39,3.25-8.79,4.87-13.18c0.09-0.24,0.21-0.31,0.46-0.31
		c1.38,0.01,2.75,0.01,4.13,0c0.2,0,0.29,0.05,0.36,0.24c1.93,5.25,3.87,10.5,5.81,15.75c0.02,0.05,0.03,0.11,0.05,0.19
		c-0.09,0.01-0.16,0.01-0.24,0.02c-1.35,0-2.69-0.01-4.04,0.01c-0.22,0-0.3-0.08-0.37-0.27c-0.19-0.57-0.4-1.14-0.6-1.71
		c-0.06-0.17-0.14-0.24-0.33-0.24c-1.91,0.01-3.83,0.01-5.74,0c-0.17,0-0.26,0.05-0.32,0.22c-0.2,0.6-0.43,1.19-0.64,1.78
		c-0.05,0.13-0.09,0.21-0.25,0.21c-1.35-0.01-2.69-0.01-4.04-0.01C80.2,37.22,80.17,37.2,80.12,37.19z M88.36,26.36
		c-0.61,1.7-1.21,3.34-1.81,5c1.21,0,2.38,0,3.59,0C89.55,29.71,88.97,28.06,88.36,26.36z"/>
	<path d="M28.02,22.94c-2.14,0-4.22,0-6.35,0c0,1.79,0,3.57,0,5.37c-1.49,0-2.94,0-4.4,0c0-5.39,0-10.77,0-16.18
		c0.12,0,0.22,0,0.32,0c3.61,0,7.23,0,10.84-0.01c0.28,0,0.36,0.08,0.35,0.36c-0.02,1.09-0.01,2.18,0,3.28
		c0,0.26-0.07,0.33-0.33,0.33c-2.14-0.01-4.28-0.01-6.41-0.01c-0.12,0-0.23,0-0.36,0c0,1.01,0,1.99,0,3.01c0.12,0,0.24,0,0.35,0
		c1.89,0,3.79,0,5.68-0.01c0.25,0,0.31,0.07,0.31,0.31c-0.01,1.08-0.01,2.16-0.01,3.25C28.02,22.73,28.02,22.82,28.02,22.94z"/>
	<path d="M112.38,31.48c0.35-0.98,0.69-1.92,1.02-2.86c0.19-0.52,0.36-1.05,0.56-1.56c0.03-0.09,0.16-0.19,0.25-0.2
		c0.45-0.02,0.9-0.01,1.35-0.01c0.13,0,0.22,0.01,0.23,0.18c0.19,2.05,0.39,4.11,0.58,6.16c0.01,0.06,0,0.12,0,0.21
		c-0.4,0-0.79,0.01-1.17-0.01c-0.06,0-0.15-0.12-0.16-0.18c-0.09-0.81-0.16-1.63-0.24-2.44c-0.06-0.69-0.12-1.38-0.23-2.08
		c-0.12,0.33-0.24,0.66-0.36,0.99c-0.41,1.15-0.83,2.3-1.23,3.46c-0.07,0.19-0.15,0.29-0.37,0.27c-0.31-0.03-0.7,0.09-0.91-0.06
		c-0.21-0.15-0.25-0.54-0.35-0.84c-0.42-1.18-0.83-2.37-1.24-3.55c-0.02-0.06-0.05-0.12-0.13-0.18c-0.16,1.53-0.31,3.06-0.47,4.61
		c-0.41,0-0.8,0-1.24,0c0.05-0.6,0.11-1.19,0.16-1.78c0.13-1.34,0.27-2.67,0.39-4.01c0.06-0.74,0.05-0.75,0.8-0.75
		c0.28,0,0.57,0.01,0.85,0c0.2-0.01,0.28,0.07,0.35,0.25c0.47,1.36,0.95,2.72,1.43,4.07C112.29,31.26,112.32,31.34,112.38,31.48z"/>
	<path d="M110,18.03c-0.16,1.53-0.31,3.06-0.47,4.61c-0.41,0-0.8,0-1.23,0c0.03-0.33,0.05-0.66,0.08-0.98
		c0.17-1.77,0.35-3.54,0.52-5.32c0.02-0.17,0.06-0.24,0.24-0.24c0.46,0.01,0.92,0.01,1.38,0c0.2-0.01,0.26,0.08,0.32,0.25
		c0.48,1.39,0.97,2.77,1.46,4.15c0.02,0.06,0.05,0.13,0.09,0.25c0.08-0.21,0.15-0.37,0.2-0.54c0.46-1.28,0.92-2.56,1.37-3.84
		c0.07-0.19,0.15-0.28,0.37-0.27c0.48,0.02,0.95,0.01,1.47,0.01c0.21,2.18,0.41,4.35,0.62,6.54c-0.46,0-0.88,0-1.33,0
		c-0.15-1.55-0.29-3.09-0.44-4.64c-0.02,0-0.04,0-0.05-0.01c-0.3,0.83-0.59,1.66-0.89,2.49c-0.23,0.65-0.47,1.3-0.7,1.95
		c-0.06,0.18-0.15,0.24-0.33,0.23c-0.32-0.02-0.72,0.1-0.94-0.05c-0.22-0.15-0.26-0.56-0.36-0.86c-0.41-1.17-0.82-2.35-1.23-3.52
		c-0.02-0.07-0.05-0.14-0.08-0.21C110.03,18.03,110.02,18.03,110,18.03z"/>
	<path d="M145.7,22.65c-0.43,0-0.81,0-1.24,0c0-0.2,0-0.39,0-0.58c0-0.63,0-1.27,0-1.9c0-0.62-0.3-0.97-0.83-0.98
		c-0.58-0.01-0.96,0.35-0.97,0.97c-0.01,0.72,0,1.44,0,2.16c0,0.1,0,0.21,0,0.33c-0.42,0-0.81,0-1.24,0c0-0.1,0-0.2,0-0.31
		c0-0.75,0.01-1.5-0.01-2.25c-0.01-0.49-0.28-0.84-0.68-0.89c-0.51-0.07-0.94,0.16-1.07,0.61c-0.05,0.16-0.06,0.33-0.07,0.49
		c-0.01,0.68,0,1.36,0,2.05c0,0.1,0,0.19,0,0.31c-0.41,0-0.79,0-1.2,0c0-1.49,0-2.98,0-4.49c0.39,0,0.78,0,1.18,0
		c0.01,0.13,0.02,0.24,0.03,0.41c0.41-0.43,0.89-0.58,1.44-0.54c0.55,0.04,0.99,0.27,1.35,0.73c0.26-0.35,0.59-0.59,1.02-0.68
		c1.38-0.28,2.35,0.52,2.31,1.8C145.68,20.78,145.7,21.7,145.7,22.65z"/>
	<path d="M151.76,33.4c-0.41,0-0.81,0.01-1.21-0.01c-0.08,0-0.18-0.1-0.22-0.18c-0.12-0.26-0.19-0.53-0.31-0.78
		c-0.04-0.09-0.17-0.18-0.26-0.18c-0.82-0.01-1.64,0-2.46-0.01c-0.18,0-0.26,0.07-0.31,0.23c-0.09,0.26-0.18,0.52-0.29,0.76
		c-0.03,0.08-0.14,0.16-0.22,0.17c-0.37,0.02-0.74,0.01-1.16,0.01c0.07-0.18,0.13-0.33,0.18-0.48c0.75-1.94,1.5-3.88,2.24-5.82
		c0.08-0.2,0.17-0.27,0.38-0.26c0.32,0.02,0.64-0.01,0.97,0.01c0.08,0,0.21,0.07,0.23,0.15c0.82,2.1,1.63,4.2,2.44,6.3
		C151.77,33.32,151.76,33.34,151.76,33.4z M148.52,28.44c-0.35,0.92-0.67,1.77-1,2.64c0.69,0,1.32,0,2,0
		C149.19,30.2,148.86,29.35,148.52,28.44z"/>
	<path d="M108.15,11.16c0.26-0.32,0.51-0.62,0.77-0.93c0.2,0.11,0.39,0.23,0.59,0.33c0.64,0.3,1.3,0.41,1.99,0.21
		c0.13-0.04,0.26-0.1,0.37-0.17c0.39-0.27,0.4-0.81-0.02-1c-0.43-0.2-0.92-0.28-1.39-0.41c-0.34-0.1-0.68-0.16-1-0.29
		c-1.37-0.57-1.24-2.3-0.37-3c0.53-0.43,1.14-0.58,1.79-0.61c0.77-0.03,1.51,0.12,2.19,0.52c0.12,0.07,0.22,0.15,0.36,0.24
		c-0.27,0.33-0.53,0.65-0.75,0.91c-0.5-0.15-0.96-0.35-1.44-0.42c-0.33-0.05-0.69,0.05-1.02,0.13c-0.28,0.07-0.45,0.3-0.45,0.61
		c-0.01,0.31,0.17,0.51,0.44,0.59c0.44,0.14,0.91,0.22,1.36,0.33c0.26,0.07,0.53,0.13,0.78,0.23c0.61,0.24,1.05,0.65,1.12,1.33
		c0.09,0.8-0.18,1.44-0.87,1.87c-0.75,0.46-1.59,0.5-2.43,0.39c-0.6-0.08-1.17-0.28-1.68-0.62
		C108.36,11.33,108.27,11.25,108.15,11.16z"/>
	<path d="M126.28,26.66c0.44,0,0.83,0,1.23,0c0,2.24,0,4.47,0,6.74c-0.36,0-0.72,0.02-1.07-0.02c-0.08-0.01-0.14-0.22-0.21-0.33
		c-1.18,0.68-2.21,0.56-2.94-0.36c-0.74-0.94-0.67-2.45,0.13-3.31c0.57-0.61,1.84-1.02,2.86-0.15
		C126.28,28.37,126.28,27.53,126.28,26.66z M124.06,31.1c0,0.73,0.47,1.24,1.15,1.24c0.67,0,1.14-0.51,1.15-1.22
		c0-0.73-0.47-1.24-1.15-1.24C124.53,29.89,124.06,30.39,124.06,31.1z"/>
	<path d="M127.95,5.41c1.5,0,2.98,0,4.47,0c0,0.4,0,0.78,0,1.2c-1.03,0-2.07,0-3.13,0c0,0.58,0,1.13,0,1.72c0.94,0,1.89,0,2.86,0
		c0,0.41,0,0.77,0,1.17c-0.95,0-1.89,0-2.87,0c0,0.82,0,1.61,0,2.43c-0.46,0-0.89,0-1.33,0C127.95,9.77,127.95,7.61,127.95,5.41z"/>
	<path d="M117.72,11.54c-1.04,0.93-2.35,0.49-2.93-0.16c-0.79-0.88-0.81-2.46-0.03-3.34c0.79-0.89,1.89-0.97,2.97-0.21
		c0.01-0.13,0.01-0.26,0.02-0.41c0.2,0,0.39,0,0.59,0c0.19,0,0.39,0,0.6,0c0,1.52,0,3,0,4.51c-0.39,0-0.77,0-1.18,0
		C117.74,11.82,117.73,11.69,117.72,11.54z M117.75,9.69c0-0.73-0.48-1.25-1.15-1.23c-0.65,0.01-1.14,0.54-1.15,1.23
		c0,0.71,0.49,1.22,1.17,1.22C117.3,10.9,117.75,10.42,117.75,9.69z"/>
	<path d="M140.34,7.83c0.01-0.13,0.01-0.25,0.02-0.39c0.4,0,0.78,0,1.19,0c0,1.5,0,2.99,0,4.5c-0.39,0-0.78,0-1.18,0
		c-0.01-0.12-0.02-0.24-0.03-0.42c-0.51,0.52-1.12,0.64-1.79,0.51c-0.52-0.1-0.94-0.38-1.26-0.8c-0.71-0.93-0.65-2.43,0.12-3.24
		C138.23,7.14,139.25,7.08,140.34,7.83z M140.37,9.67c0-0.71-0.47-1.22-1.14-1.22c-0.66,0-1.17,0.54-1.16,1.24
		c0.01,0.72,0.49,1.21,1.18,1.21C139.92,10.9,140.37,10.41,140.37,9.67z"/>
	<path d="M151.5,18.01c1.45,0.01,2.46,1.03,2.45,2.45c-0.01,1.35-1.08,2.33-2.51,2.32c-1.4-0.01-2.42-1.04-2.41-2.43
		C149.04,19.01,150.11,18,151.5,18.01z M151.5,19.18c-0.69,0-1.19,0.49-1.19,1.19c0,0.73,0.48,1.25,1.17,1.26
		c0.68,0.01,1.2-0.53,1.2-1.23C152.67,19.69,152.18,19.19,151.5,19.18z"/>
	<path d="M119.55,28.73c1.42,0,2.45,1,2.45,2.38c0,1.36-1.04,2.38-2.45,2.4c-1.4,0.02-2.46-1.02-2.46-2.41
		C117.1,29.73,118.13,28.73,119.55,28.73z M118.37,31.12c0,0.71,0.49,1.22,1.17,1.23c0.69,0.01,1.2-0.51,1.19-1.23
		c0-0.72-0.5-1.23-1.2-1.22C118.85,29.9,118.36,30.41,118.37,31.12z"/>
	<path d="M169.88,9.71c0.09,1.11-0.84,2.38-2.45,2.37c-1.41-0.01-2.47-1.04-2.46-2.39c0.01-1.37,1.06-2.37,2.47-2.38
		C168.93,7.29,169.98,8.45,169.88,9.71z M167.43,10.9c0.71,0,1.21-0.5,1.2-1.22c0-0.71-0.53-1.24-1.21-1.23
		c-0.67,0.01-1.18,0.54-1.18,1.24C166.25,10.39,166.74,10.9,167.43,10.9z"/>
	<path d="M132.93,31.54c-1.05,0-2.08,0-3.13,0c0.03,0.36,0.21,0.61,0.5,0.75c0.64,0.31,1.21,0.11,1.76-0.28
		c0.24,0.26,0.47,0.52,0.72,0.79c-0.36,0.35-0.78,0.55-1.26,0.64c-0.92,0.16-1.77,0.06-2.45-0.65c-0.72-0.75-0.81-2.16-0.19-3.1
		c0.54-0.83,1.68-1.18,2.67-0.83C132.58,29.21,133.17,30.35,132.93,31.54z M131.7,30.65c-0.08-0.55-0.45-0.87-0.97-0.85
		c-0.51,0.02-0.87,0.34-0.92,0.85C130.44,30.65,131.07,30.65,131.7,30.65z"/>
	<path d="M128.63,20.82c0.29,1,1.14,1.17,2.3,0.49c0.23,0.25,0.47,0.51,0.71,0.78c-0.56,0.52-1.22,0.7-1.94,0.69
		c-1.04-0.01-1.84-0.5-2.18-1.37c-0.39-1-0.17-2.18,0.56-2.83c0.67-0.6,1.47-0.7,2.3-0.44c0.81,0.25,1.25,0.87,1.4,1.68
		c0.06,0.32,0.05,0.65,0.08,1.01C130.76,20.82,129.71,20.82,128.63,20.82z M128.65,19.95c0.65,0,1.28,0,1.91,0
		c-0.05-0.5-0.4-0.83-0.88-0.87C129.17,19.04,128.8,19.35,128.65,19.95z"/>
	<path d="M140.92,33.38c0-0.67,0-1.32,0-1.97c0-0.22,0.01-0.45-0.01-0.67c-0.06-0.59-0.39-0.87-0.95-0.83
		c-0.49,0.03-0.84,0.41-0.84,0.94c-0.01,0.75,0,1.5,0,2.25c0,0.09,0,0.17,0,0.28c-0.41,0-0.81,0-1.22,0c0-1.5,0-3,0-4.51
		c0.38,0,0.76,0,1.16,0c0.01,0.14,0.01,0.27,0.02,0.46c0.4-0.45,0.87-0.61,1.43-0.59c0.89,0.03,1.62,0.68,1.66,1.57
		c0.03,1,0.01,2.01,0,3.01c0,0.02-0.01,0.03-0.03,0.07C141.75,33.38,141.36,33.38,140.92,33.38z"/>
	<path d="M124.49,11.94c-0.43,0-0.81,0-1.24,0c0-0.11,0-0.21,0-0.32c0-0.73,0-1.46,0-2.19c0-0.58-0.29-0.92-0.77-0.96
		c-0.58-0.04-0.96,0.25-1.02,0.84c-0.05,0.45-0.03,0.91-0.03,1.37c0,0.41,0,0.82,0,1.25c-0.41,0-0.8,0-1.21,0c0-1.5,0-2.99,0-4.5
		c0.39,0,0.77,0,1.17,0c0.01,0.12,0.03,0.25,0.04,0.38c0.03-0.01,0.06,0,0.07-0.02c0.59-0.59,1.29-0.62,2-0.33
		c0.69,0.29,0.99,0.88,0.99,1.61C124.49,10.02,124.49,10.96,124.49,11.94z"/>
	<path d="M147.08,11.94c-0.42,0-0.81,0-1.24,0c0-0.24,0-0.47,0-0.7c0-0.58,0-1.17,0-1.75c0-0.66-0.3-1.01-0.86-1.01
		c-0.59,0-0.94,0.37-0.94,1.02c0,0.81,0,1.61,0,2.44c-0.42,0-0.81,0-1.22,0c0-1.49,0-2.98,0-4.49c0.38,0,0.76,0,1.17,0
		c0.01,0.12,0.02,0.24,0.04,0.42c0.43-0.47,0.95-0.6,1.53-0.54c0.83,0.08,1.48,0.67,1.52,1.51
		C147.12,9.85,147.08,10.89,147.08,11.94z"/>
	<path d="M155.35,18.15c0.01-0.89-0.02-1.75,0.9-2.18c0.63-0.3,1.57-0.16,2.14,0.29c-0.16,0.31-0.32,0.61-0.48,0.93
		c-0.38-0.11-0.75-0.38-1.12-0.09c-0.33,0.27-0.12,0.67-0.19,1.05c0.27,0,0.49,0,0.71,0c0.21,0,0.43,0,0.66,0c0,0.37,0,0.72,0,1.1
		c-0.45,0-0.88,0-1.35,0c0,1.14,0,2.26,0,3.4c-0.43,0-0.84,0-1.27,0c0-1.12,0-2.23,0-3.38c-0.28,0-0.54,0-0.82,0
		c0-0.38,0-0.73,0-1.1C154.8,18.15,155.06,18.15,155.35,18.15z"/>
	<path d="M159.43,7.69c-0.17,0.39-0.3,0.69-0.42,0.95c-0.47-0.11-0.91-0.22-1.36-0.3c-0.17-0.03-0.38,0-0.54,0.07
		c-0.11,0.05-0.23,0.2-0.23,0.32c0,0.09,0.14,0.24,0.25,0.26c0.32,0.09,0.65,0.12,0.97,0.19c0.2,0.04,0.4,0.09,0.59,0.17
		c0.44,0.17,0.75,0.47,0.81,0.95c0.07,0.56-0.09,1.04-0.57,1.38c-0.41,0.28-0.87,0.37-1.36,0.38c-0.76,0.02-1.49-0.09-2.17-0.53
		c0.17-0.32,0.33-0.63,0.49-0.94c0.58,0.37,1.2,0.51,1.86,0.42c0.11-0.02,0.23-0.05,0.33-0.1c0.24-0.14,0.24-0.42-0.02-0.52
		c-0.27-0.1-0.56-0.13-0.85-0.2c-0.27-0.06-0.56-0.1-0.82-0.2c-0.48-0.18-0.79-0.53-0.82-1.07c-0.04-0.59,0.18-1.05,0.7-1.34
		c0.59-0.33,1.24-0.31,1.88-0.22C158.59,7.41,158.99,7.57,159.43,7.69z"/>
	<path d="M122.47,22.24c0.16-0.3,0.32-0.61,0.48-0.93c0.6,0.36,1.22,0.51,1.89,0.41c0.09-0.01,0.21-0.03,0.27-0.08
		c0.09-0.08,0.18-0.19,0.18-0.3c0-0.09-0.11-0.23-0.19-0.25c-0.28-0.09-0.57-0.13-0.85-0.19c-0.23-0.05-0.46-0.08-0.68-0.16
		c-0.62-0.21-0.92-0.6-0.93-1.2c-0.01-0.64,0.28-1.12,0.88-1.34c1-0.36,1.97-0.19,2.95,0.24c-0.15,0.34-0.28,0.65-0.39,0.89
		c-0.56-0.09-1.07-0.19-1.58-0.26c-0.12-0.02-0.27,0.01-0.36,0.08c-0.1,0.07-0.2,0.2-0.2,0.31c0,0.09,0.13,0.23,0.23,0.25
		c0.32,0.09,0.65,0.12,0.97,0.19c0.21,0.04,0.42,0.1,0.61,0.17c0.45,0.17,0.75,0.49,0.81,0.98c0.06,0.54-0.09,1.02-0.56,1.32
		c-0.26,0.16-0.56,0.28-0.86,0.35C124.28,22.93,123.07,22.7,122.47,22.24z"/>
	<path d="M135.88,18.16c0.43,0,0.82,0,1.2,0c0,1.02,0.06,2.04-0.02,3.04c-0.07,0.86-0.74,1.47-1.61,1.54
		c-0.45,0.04-0.92,0.01-1.35-0.11c-0.84-0.24-1.21-0.89-1.28-1.73c-0.01-0.11,0-0.21-0.01-0.32c0-0.8,0-1.59,0-2.42
		c0.42,0,0.82,0,1.26,0c0,0.26,0,0.51,0,0.76c0,0.62-0.01,1.25,0.01,1.87c0.02,0.52,0.34,0.82,0.86,0.84
		c0.49,0.02,0.86-0.26,0.91-0.76c0.04-0.45,0.03-0.91,0.03-1.37C135.88,19.06,135.88,18.62,135.88,18.16z"/>
	<path d="M117.4,18.15c0.42,0,0.79,0,1.22,0c0,0.11,0,0.21,0,0.31c0,0.7-0.01,1.4,0,2.1c0.01,0.79,0.45,1.17,1.16,1.03
		c0.41-0.08,0.65-0.4,0.66-0.88c0-0.74,0-1.48,0-2.22c0-0.11,0-0.21,0-0.34c0.41,0,0.8,0,1.23,0c0.01,0.09,0.02,0.18,0.02,0.28
		c0,0.77,0,1.54,0,2.31c0,1.19-0.7,1.93-1.89,2.02c-0.73,0.05-1.43-0.05-1.92-0.64c-0.24-0.28-0.43-0.68-0.46-1.04
		C117.36,20.12,117.4,19.14,117.4,18.15z"/>
	<path d="M163.65,10.47c0.28,0.24,0.56,0.48,0.83,0.71c-0.34,0.66-1.43,1.04-2.35,0.84c-1.08-0.24-1.81-1.06-1.86-2.08
		c-0.06-1.29,0.53-2.21,1.61-2.54c1.01-0.3,2.14,0.02,2.6,0.77c-0.28,0.24-0.56,0.47-0.87,0.73c-0.33-0.33-0.73-0.55-1.2-0.41
		c-0.22,0.06-0.45,0.2-0.61,0.37c-0.41,0.45-0.37,1.28,0.04,1.72C162.29,11.04,162.88,11.01,163.65,10.47z"/>
	<path d="M151.36,10.47c0.29,0.25,0.57,0.49,0.85,0.73c-0.54,0.78-1.64,1.08-2.67,0.74c-0.99-0.32-1.58-1.19-1.57-2.31
		c0.01-1.07,0.65-1.94,1.65-2.23c1-0.3,2.09,0.02,2.59,0.78c-0.29,0.24-0.57,0.48-0.86,0.72c-0.73-0.54-1.35-0.57-1.79-0.1
		c-0.42,0.46-0.42,1.31,0,1.78C149.99,11.04,150.65,11.01,151.36,10.47z"/>
	<path d="M158.17,29.95c0,0.63-0.02,1.22,0.01,1.8c0.03,0.55,0.36,0.72,0.87,0.51c0.06-0.03,0.12-0.05,0.21-0.08
		c0.12,0.29,0.25,0.56,0.35,0.84c0.02,0.06-0.04,0.18-0.1,0.22c-0.55,0.31-1.13,0.38-1.71,0.16c-0.63-0.25-0.82-0.8-0.85-1.41
		c-0.03-0.56-0.01-1.13-0.01-1.7c0-0.1,0-0.19,0-0.32c-0.24,0-0.46,0-0.7,0c0-0.38,0-0.72,0-1.1c0.22,0,0.44,0,0.69,0
		c0-0.46,0-0.89,0-1.34c0.42,0,0.81,0,1.22,0c0,0.42,0,0.86,0,1.32c0.44,0,0.86,0,1.28,0c0,0.38,0,0.73,0,1.1
		C159.01,29.95,158.61,29.95,158.17,29.95z"/>
	<path d="M152.48,28.87c0.37,0,0.76,0,1.16,0c0.01,0.12,0.01,0.24,0.02,0.4c0.55-0.58,1.19-0.62,1.9-0.44
		c-0.06,0.41-0.12,0.8-0.18,1.21c-0.21-0.04-0.4-0.09-0.59-0.11c-0.61-0.09-1.07,0.27-1.09,0.88c-0.02,0.77-0.02,1.54-0.01,2.31
		c0,0.24-0.07,0.31-0.3,0.29c-0.25-0.02-0.51,0.01-0.76-0.01c-0.07-0.01-0.2-0.11-0.2-0.17c-0.01-1.44,0-2.88,0.01-4.32
		C152.45,28.9,152.46,28.89,152.48,28.87z"/>
	<path d="M133.98,28.86c0.4,0,0.78,0,1.18,0c0.01,0.12,0.02,0.23,0.04,0.38c0.54-0.56,1.17-0.59,1.88-0.42
		c-0.06,0.42-0.12,0.81-0.17,1.13c-0.37,0-0.7-0.03-1.02,0.01c-0.37,0.05-0.6,0.3-0.64,0.66c-0.05,0.39-0.05,0.79-0.06,1.19
		c-0.01,0.52,0,1.03,0,1.57c-0.41,0-0.8,0-1.21,0C133.98,31.88,133.98,30.38,133.98,28.86z"/>
	<path d="M134.49,11.94c-0.42,0-0.81,0-1.22,0c0-1.5,0-3,0-4.51c0.39,0,0.76,0,1.16,0c0.01,0.11,0.03,0.22,0.03,0.3
		c0.29-0.13,0.58-0.32,0.9-0.39c0.31-0.07,0.65-0.01,1.01-0.01c-0.07,0.48-0.13,0.87-0.19,1.28c-0.16-0.03-0.29-0.07-0.43-0.09
		c-0.76-0.15-1.25,0.23-1.26,1c-0.01,0.69,0,1.38,0,2.08C134.49,11.69,134.49,11.8,134.49,11.94z"/>
	<path d="M154.35,11.94c-0.4,0-0.79,0-1.2,0c0-1.5,0-2.99,0-4.5c0.4,0,0.79,0,1.2,0C154.35,8.93,154.35,10.42,154.35,11.94z"/>
	<path d="M153.74,6.73c-0.45,0-0.78-0.33-0.79-0.77c0-0.45,0.34-0.81,0.78-0.81c0.46,0,0.79,0.33,0.79,0.79
		C154.53,6.42,154.21,6.73,153.74,6.73z"/>
</g>
</svg>
